<svg xmlns="http://www.w3.org/2000/svg" viewBox="0 0 150.92 117.64"><defs><style>.cls-1{fill:#20201f;}.cls-2{fill:#e1ce9e;}.cls-3{fill:#eed295;}.cls-4{fill:#e1d3a5;}.cls-5{fill:#ebdcaa;}.cls-6{fill:#ddc8a0;}.cls-7{fill:#d8ca9d;}.cls-8,.cls-9{fill:#dcc599;}.cls-26,.cls-27,.cls-9{stroke:#1d1d1b;}.cls-26,.cls-9{stroke-miterlimit:10;}.cls-9{stroke-width:0.25px;}.cls-10{fill:#f9e6c1;}.cls-11{fill:#eed3a0;}.cls-12{fill:#a99a7b;}.cls-13{fill:#ccb486;}.cls-14{fill:#ead2a6;}.cls-15{fill:#e3caa3;}.cls-16{fill:#f7d89e;}.cls-17{fill:#aa9c84;}.cls-18{fill:#d2c2a9;}.cls-19{fill:#e6cb99;}.cls-20{fill:#ad9a79;}.cls-21{fill:#fff;}.cls-22{fill:#847d79;}.cls-23{fill:#c0b197;}.cls-24{fill:#a39274;}.cls-25{fill:#a09376;}.cls-26,.cls-27{fill:#63965a;stroke-width:0.5px;}.cls-27{stroke-linejoin:round;}</style></defs><title>Asset 6</title><g id="Layer_2" data-name="Layer 2"><g id="ChirpNet_logo_Image_Image" data-name="ChirpNet logo Image Image"><path class="cls-1" d="M56.71,83.83a.49.49,0,0,0,.19.44A51,51,0,0,0,62.07,89a98.12,98.12,0,0,0,10.81,7.27c1.92,1.11,3.89,2.13,5.85,3.17,3.39,1.81,6.79,3.59,10.14,5.48a97.54,97.54,0,0,1,8.38,5.17,17.77,17.77,0,0,1,4.71,4.39,2.83,2.83,0,0,1,.61,2.55.85.85,0,0,1-.87.63,10,10,0,0,1-4.11-1c-4.49-1.68-8.68-4-13-6a106.64,106.64,0,0,1-9.33-5.24c-1.37-.82-2.81-1.53-4.2-2.33-1.92-1.12-3.81-2.28-5.72-3.41-1.2-.71-2.41-1.38-3.61-2.08a.45.45,0,0,0-.68.15A3.47,3.47,0,0,1,58,99.14c-2,0-4-.22-6.06-.28a11,11,0,0,1-3.16-.27,5.7,5.7,0,0,1,.5,2A1.73,1.73,0,0,0,49.6,102a1.44,1.44,0,0,1,0,1.79c-.33.45-.56.45-.84,0,0-.08-.12-.12-.19-.09a6.27,6.27,0,0,0-.93.46.61.61,0,0,0-.22.92.26.26,0,0,1-.12.36.58.58,0,0,1-.52,0,2.41,2.41,0,0,1-.52-.37c-.16-.13-.32-.37-.51-.22a.58.58,0,0,0-.18.74c.19.4.35.81.55,1.2s.24.69.05.89-.58,0-.84-.16A3.46,3.46,0,0,1,43.88,105a1.14,1.14,0,0,0-.27-.81c-.27.34-.45.5-.77,0a10.86,10.86,0,0,0-1.68-2.36,8.08,8.08,0,0,1-1.67-2.46c-.25-.52-.59-.73-1.14-.37-.19.12-.47.35-.49-.18,0-.31-.29-.19-.45-.12a2,2,0,0,0-.47.34c-.1.09-.3.11-.32.06-.19-.75-.51-.12-.75-.06s-.3.19-.42-.13-.33,0-.48.07-.33.38-.56,0c-.05-.08-.44-.08-.48.16a11.17,11.17,0,0,0-.52,1.84,1.06,1.06,0,0,1-.41.83,1.57,1.57,0,0,0-.4,1.05,2.18,2.18,0,0,1-.24.76c-.09.16-.06.4-.42.15s-.61.31-.86.54a6.2,6.2,0,0,1-1.61,1,1.91,1.91,0,0,1-2.09-.61.52.52,0,0,1,0-.61c.21-.24.47-.56.77-.43s.32,0,.42-.17a1.42,1.42,0,0,1,1.65-.84c.05,0,.15,0,.16,0,.12-.59.81-.88.77-1.59a16.63,16.63,0,0,1,.23-2.76c.06-.59,1.06-1.13,1.81-1.24a24.27,24.27,0,0,1,4-.26c.43,0,.84-.23,1.3-.08-1.06-1.63-1.76-3.42-2.83-5a3.44,3.44,0,0,0-.64-.77,5,5,0,0,1-1.49-2.52.75.75,0,0,0-.42-.5,24.44,24.44,0,0,1-5.94-4.07,2.85,2.85,0,0,1-.7-.9c-.41-1-1.08-1.82-1.45-2.82a4.85,4.85,0,0,1-.15-1.46c0-.27,0-.56-.22-.78a10.48,10.48,0,0,0,.83,5.45c.61,1.72,1.11,3.48,1.66,5.22.17.55.33,1.11.47,1.67,0,.14.09.35-.06.44s-.3,0-.4-.16-.24-.06-.24.07A3,3,0,0,1,25.7,93c-.23.19-.25.46-.23.81a7,7,0,0,1-.19,2.37,3.28,3.28,0,0,0-.25,2.5A.84.84,0,0,1,24.2,100c-.17,0-.26,0-.25.23s0,.4,0,.6,0,.68-.32.82a.76.76,0,0,1-.88-.17.86.86,0,0,1-.18-1,.81.81,0,0,0-.06-1.19c-.48-.52-.29-1.12.4-1.46a.66.66,0,0,0,.44-.78.75.75,0,0,1,.29-.79c.07-.05.2-.12.14-.23-.47-.78,0-1.5.15-2.24a2.51,2.51,0,0,0,.14-.92.74.74,0,0,1,.2-.59c.21-.26.47-.4.32-.89s.35-1,.84-1.06a31.74,31.74,0,0,0-1.13-3.87,31.27,31.27,0,0,1-1.39-4.76c-.2-1-.39-2.11-.52-3.17s-.61-2.11-.64-3.17c0-1.49-1-2.54-1.53-3.78A6.81,6.81,0,0,1,19.64,70c0-.3-.18-.27-.36-.18-.8.42-1.74.62-2.3,1.45-.05.08-.16.18-.23.17-1-.18-1.57.61-2.27,1-1.48.91-2.94,1.84-4.5,2.6a22,22,0,0,0-2.44,1.56.57.57,0,0,0-.13.71c.15.43,0,.6-.4.57s-.32.12-.35.38C6.52,79.51,6.45,79.88,5,80a1.63,1.63,0,0,0-1.5.84,2.11,2.11,0,0,1-.35.47.85.85,0,0,1-1.47-.18c0-.08.07-.27-.12-.24s-.34.08-.36.26a1.72,1.72,0,0,1-.21.54C.88,81.81.84,82,.6,82a.5.5,0,0,1-.4-.32C-.14,81-.13,80.2.86,80.06a.4.4,0,0,0,.3-.24c.46-.76.76-.88,1.72-.72A2.21,2.21,0,0,0,5,78.36a1,1,0,0,0,0-1,1.91,1.91,0,0,1,.43-2.12,10.56,10.56,0,0,1,2.75-1.93c2.2-1.4,4.61-2.42,6.86-3.75.13-.08.34-.11.33-.29,0-.74.49-1.1,1-1.49a.44.44,0,0,0-.08-.77,1.82,1.82,0,0,0-2,.45c-.14.18,0,.25.09.34l.8.69c.13.11.26.21.13.43a.38.38,0,0,1-.49.21,3.5,3.5,0,0,1-1.69-1.38.61.61,0,0,1,.21-.87,3.65,3.65,0,0,1,1.18-.75,11.6,11.6,0,0,1-2-2.26,21.19,21.19,0,0,1-2.16-5c-.3-.88-.48-1.79-.77-2.65a9,9,0,0,1-.44-2.68,1.44,1.44,0,0,0-.4-.76,1.28,1.28,0,0,1-.31-1,2.08,2.08,0,0,0-.3-1.37A1.64,1.64,0,0,1,9,47.91c.12,0,.16-.08.17-.19a5.39,5.39,0,0,0-.1-2.49,32.75,32.75,0,0,1-1.47-6.14c-.29-1.8-.69-3.59-.93-5.39s-.41-3.39-.53-5.1c-.1-1.47-.11-2.94-.07-4.41a30.69,30.69,0,0,1,1.23-8,21.33,21.33,0,0,1,3.88-7.45,19.12,19.12,0,0,1,3.94-3.61,25.21,25.21,0,0,1,6.62-3.26A32.32,32.32,0,0,1,27.34.61C28.79.4,30.25.23,31.72.12c2.67-.2,5.34-.1,8-.07a51.24,51.24,0,0,1,5.58.47c1.85.23,3.7.52,5.55.8,3.18.49,6.34,1.11,9.48,1.83q5.07,1.17,10.09,2.58T80.63,8.9a2.39,2.39,0,0,0,.86.12c6.29-.19,12.58-.2,18.87-.09,4.73.09,9.46.07,14.19.07,1.49,0,3,0,4.47-.12a36,36,0,0,0,6.35-.71,4.76,4.76,0,0,0,1.76-.69,1.09,1.09,0,0,0,.49-.68c0-.16,0-.35.24-.28s.14.28.1.4a2.55,2.55,0,0,1-1.68,1.5,20.64,20.64,0,0,1-4.83,1c-1.91.2-3.82.26-5.73.38-1.45.09-2.9.08-4.35.08q-13.53,0-27.06,0H83.5c1.25.46,2.36.85,3.46,1.26,2.71,1,5.44,2,8.13,3.11s5.45,2.21,8.16,3.36c2.23.94,4.44,1.94,6.66,2.92l8,3.51,9.23,4.12c2,.9,4,1.85,6,2.71,2.6,1.11,5.21,2.2,7.84,3.24A38.17,38.17,0,0,0,146.72,36a6.24,6.24,0,0,0,3.13.2.94.94,0,0,0,.72-.52c0-.1.12-.23.27-.18s.08.2.08.31a.78.78,0,0,1-.4.77,2.82,2.82,0,0,1-2,.36c-3.91-.45-7.45-2.05-11.06-3.45-3.23-1.26-6.39-2.66-9.56-4.05l-7.5-3.32c-2.83-1.26-5.65-2.54-8.49-3.77-3.19-1.39-6.41-2.72-9.61-4.09-4.39-1.88-8.82-3.62-13.3-5.26-2.6-1-5.21-1.87-7.83-2.78a5.55,5.55,0,0,0-2.52-.1,3.16,3.16,0,0,1-.53,0c-1.47-.08-2.94.12-4.41.14-1.81,0-3.62.2-5.43.34s-3.65.28-5.46.49c-1.52.17-3,.34-4.56.48-1.79.16-3.59.35-5.37.6s-3.78.52-5.67.8a74.85,74.85,0,0,0-8.06,1.72,72.7,72.7,0,0,0-8.71,2.86c-1.38.56-2.74,1.13-4.06,1.81a24.78,24.78,0,0,0-7.47,5.34,30.84,30.84,0,0,0-3.36,4.61,35.49,35.49,0,0,0-4.09,9.84,57.64,57.64,0,0,0-1,5.72,4.05,4.05,0,0,0,.45,2.61,5.16,5.16,0,0,0,1.21,1.82.62.62,0,0,0,.71.14A3,3,0,0,1,15.93,51a1.62,1.62,0,0,0,1.21,1,25.67,25.67,0,0,1,2.54.6c3.13.89,6.19,2,9.22,3.17a10.11,10.11,0,0,1,4,2.39,1.84,1.84,0,0,1,.58,1,.56.56,0,0,0,.58.56,1.73,1.73,0,0,1,1.06.57c.52.56,1.29.58,1.94.86a20.23,20.23,0,0,1,3.09,1.69,7.35,7.35,0,0,0,1.25.57,20.31,20.31,0,0,1,4.49,2.73,18.32,18.32,0,0,0,4.34,3A38.33,38.33,0,0,1,54.82,71a2,2,0,0,0,.92.14A18,18,0,0,0,58,71.3c.74-.08,1.46.14,2.19.12,1.67,0,3.34-.1,5-.15,1.38,0,2.76-.09,4.14-.21,1.74-.16,3.49-.29,5.22-.5a13.32,13.32,0,0,1,2-.23c.94,0,1.35.43,1.37,1.36A3.51,3.51,0,0,1,76,74.77c-1,.67-2.15,1.2-3.23,1.82-1.94,1.11-4,2-5.83,3.27a40.57,40.57,0,0,0,5.73,3.88q2.79,1.53,5.51,3.18,3.39,2.07,6.61,4.42c2,1.47,4,2.93,6.11,4.35,4.09,2.81,8.25,5.52,12.18,8.56a12,12,0,0,1,3.52,3.49,4.44,4.44,0,0,1,.7,1.94c0,.75-.19,1-1,1a11.17,11.17,0,0,1-4.1-.79,89,89,0,0,1-9.16-3.66,60.28,60.28,0,0,1-8.6-4.88c-5.6-3.71-11.17-7.44-16.78-11.13A80.08,80.08,0,0,0,58.3,84.7a4.52,4.52,0,0,1-.8-.46A2.39,2.39,0,0,0,56.71,83.83ZM55.62,79a.2.2,0,0,0,.21.15s0-.07,0-.09-.16-.06-.25,0-.06-.16-.15-.2-.07.05-.07.07S55.53,79,55.62,79Zm25.1,29.14c0-.15-.22-.08-.28-.19-1.39-1-2.85-1.82-4.3-2.68-2.83-1.68-5.6-3.44-8.37-5.2-1.64-1-3.24-2.17-4.78-3.36S60,94.26,58.46,93c-1.32-1.09-2.58-2.25-3.93-3.3-1.75-1.38-3.5-2.75-5.32-4-2.28-1.61-4.52-3.27-6.78-4.9-1.77-1.28-3.56-2.53-5.32-3.83-2.44-1.82-4.88-3.63-7.39-5.35a13.25,13.25,0,0,1-3.24-2.94c.09-.28.22-.21.36,0s.36.47.57.68A35.59,35.59,0,0,0,32.21,73c2.69,2,5.41,3.91,8.11,5.87s5.38,4,8.1,5.88c2.28,1.62,4.5,3.32,6.68,5.07,1.76,1.42,3.47,2.9,5.21,4.35.06.05.08.22.25.07a2.8,2.8,0,0,1,1.11-.43,1.33,1.33,0,0,1,1.1.08,6.92,6.92,0,0,1-1.48.36c-.16.05-.39.13-.43.26s.17.28.3.39a10.78,10.78,0,0,0,1.11.87,13.55,13.55,0,0,0,1.89,1.36h0c.19.4.66.47.94.76a1.89,1.89,0,0,0,2.17.56,2.08,2.08,0,0,1,.67-.2c.46,0,1-.43,1.45.18a9.46,9.46,0,0,0-2.37.38c-.11,0-.27-.06-.31.09s.12.2.24.28c1.1.7,2.17,1.46,3.29,2.12a4.06,4.06,0,0,0,1.37.76h0a.45.45,0,0,0,.24.25c2.38,1.44,4.76,2.87,7.11,4.34.36.22.63.42,1,.09.18-.17.54-.17.57,0s-.19.32-.43.32c-.09,0-.19.1-.31.17.3.18.59.34.86.52,2.45,1.65,5.09,3,7.65,4.42a75.66,75.66,0,0,0,9,4.17,19.37,19.37,0,0,0,3.85,1.13.94.94,0,0,0,1.18-1,2.61,2.61,0,0,0-.27-1.13,10.88,10.88,0,0,0-3.63-4,71.7,71.7,0,0,0-9.1-5.8c-2.72-1.51-5.47-3-8.21-4.47-2.31-1.25-4.64-2.47-7-3.72S69.37,94.54,67.08,93s-4.5-3.24-6.68-5a77.09,77.09,0,0,0-7-4.92l-7.1-4.38L38.43,74,32,70c-1.29-.8-2.59-1.57-3.88-2.37-.16-.1-.41-.23-.22-.51l10.13,6.23L47.24,79c3.15,1.93,6.3,3.86,9.39,5.88.14.09.23.36.52.15-.59-.72-1.14-1.46-1.77-2.13-1.44-1.52-2.94-3-4.36-4.52C49.9,77.15,48.68,76,47.58,74.8c-.58-.65-1.23-1.24-1.78-1.91a31.47,31.47,0,0,1-2.26-3.4,22.39,22.39,0,0,0-2.3-2.7A21.12,21.12,0,0,0,37.09,63a3.37,3.37,0,0,0-2.19-.68,4.39,4.39,0,0,0-2.41,1.1c-1.05.93-2.1,1.81-3.65,1.51a.82.82,0,0,0-1,.7c-.08.37-.2.24-.38.13a.71.71,0,0,1,.06-.22c.25-.37.19-.53-.29-.5A5.53,5.53,0,0,1,26.4,65c-.74-.06-1.45-.47-2.21-.18-.78.08-.95.26-.95,1,0,.6,0,1.2,0,1.79a1.8,1.8,0,0,1-.8,1.49,2.72,2.72,0,0,1-2.11.35c-.35-.05-.34.07-.32.3a5.68,5.68,0,0,0,1.09,2.59c.37.61.46,1.32,1.31,1.71a6.28,6.28,0,0,1,2.2,2.09,4.78,4.78,0,0,1,.23.84,5.71,5.71,0,0,1,.41,2.41,1.93,1.93,0,0,0,.4,1.19,12.8,12.8,0,0,1,.57,1.15c1-1.74,2.45-1.21,3.94-.86-.31-.35-.43-.68-.76-.92a12.13,12.13,0,0,0-2.16-1.13,3.85,3.85,0,0,1-2-1.44c-.23-.41-.18-.95-.54-1.32a5.53,5.53,0,0,0-2-2.47c-.51-.44-.9-1.06-1.61-1.23.11-.29.24-.37.53-.15.78.6,1.38,1.39,2.13,2a4.25,4.25,0,0,1,1.51,2.24,3.07,3.07,0,0,0,2,2.08c.11.05.23.12.33,0s.09-.26,0-.39a1.9,1.9,0,0,0-.72-.85,1.93,1.93,0,0,1-.68-2.28c.07-.31.23-.05.35,0a1.42,1.42,0,0,1,0,.42,1.22,1.22,0,0,0,.51,1.61A1.76,1.76,0,0,1,28,78.47a.53.53,0,0,0,.39.58,3.32,3.32,0,0,1,1.74,1.33,1.89,1.89,0,0,0,1.24.95,13.44,13.44,0,0,1,1.49.63c2.27,1,4.36,2.34,6.55,3.5,1.4.74,2.76,1.56,4.17,2.29a14.93,14.93,0,0,0,2.32,1.18,3.8,3.8,0,0,0,1.09.57c-.67-1.57-.67-1.57-1.34-2l-1.16-.77c-3.43-2.21-6.75-4.55-10-7-1.62-1.18-3.23-2.39-4.79-3.66a23.08,23.08,0,0,0-2.34-1.85A9.54,9.54,0,0,0,25.88,73c-1.45-1.29-2.6-2.7-2.54-4.8a12,12,0,0,1,.5-2.46c.07-.31.24,0,.35-.06l-.13.58c-.22.12-.13.36-.17.53a5.07,5.07,0,0,0,1.17,5,34,34,0,0,0,3.46,3.07c1.8,1.47,3.65,2.88,5.53,4.26,2.69,2,5.39,3.94,8.17,5.77C45.43,87,48.73,89,51.92,91.13A18.55,18.55,0,0,0,57.36,94a14.51,14.51,0,0,1,3.18,1.29c.51.28,1.12.66,1.06,1.3s.29.81.69,1c1.33.66,2.58,1.44,3.85,2.2,2,1.17,3.91,2.4,5.92,3.52,1.75,1,3.5,2,5.2,3A27.08,27.08,0,0,0,80.35,108c0,.15.22.08.28.19a.33.33,0,0,0,.32.17.5.5,0,0,0,.46.2c-.07-.2-.27-.18-.38-.29A.32.32,0,0,0,80.72,108.13ZM30.56,64.47c.1,0,.21,0,.24-.13a.1.1,0,0,0,0-.09c-.14-.06-.22,0-.29.13l-.39.14C30.29,64.59,30.45,64.64,30.56,64.47ZM65.23,79.23c.09.14.22.16.44.11l-.34-.19c-.08-.09-.15-.19-.29-.16a.08.08,0,0,0-.06.13C65,79.23,65.13,79.22,65.23,79.23ZM14.48,50.05a2.1,2.1,0,0,0-1.74-.3c.23.23.47.45.63.33.39-.27.71-.08,1.06,0A1.28,1.28,0,0,0,15.6,51C15.26,50.53,15,50.15,14.48,50.05Zm-6-1.31a1.43,1.43,0,0,0,.37,2c-.08-.45.2-.85.1-1.28a2.66,2.66,0,0,0,.13-.61c0-.19.15-.49-.12-.56S8.5,48.45,8.47,48.74Zm26.9,12.11c0-.1-.11-.13-.21-.07l.12.16a14.86,14.86,0,0,0,1.32,1.4c.25.28.69.68,1.18.54a4.79,4.79,0,0,1,1.59-.21A13.93,13.93,0,0,0,35.36,60.85ZM32.6,98.66c-.22-.23-.33-.78-.62-.66s-.31.65-.34,1c0,.11-.05.24.07.33.47,0,.43-.71.91-.72,0,.36-.14.74-.45.84-.63.19-.61.73-.75,1.18-.09.3.14.8.3.72.43-.2.79,0,1.21.12A11.66,11.66,0,0,1,33.66,99,2.23,2.23,0,0,1,32.6,98.66ZM13.37,58.58a6.62,6.62,0,0,0,.08-.88c.09-.72.35-1.39.43-2.11l.36-.83a5.32,5.32,0,0,1,2.25-2.84,7.31,7.31,0,0,0-1.58-.8A7.26,7.26,0,0,1,11.44,49a2.18,2.18,0,0,0-1.38-.76c-.07.85-.12,1.67-.26,2.48,0,.18-.11.44.11.55.54.26.66.77.83,1.26-.25.43,0,.64.37.74l.23.23a3.17,3.17,0,0,1,.59,2.51,2.24,2.24,0,0,1-.58.63A1.42,1.42,0,0,1,10,56.55a18.2,18.2,0,0,0,.85,2.77,17.61,17.61,0,0,0,2.75,5.52,4.57,4.57,0,0,0,2.15,1.56A13,13,0,0,1,13.38,60,6.58,6.58,0,0,1,13.37,58.58ZM46.4,99c-.07-.06-.22-.13-.21-.17.1-.49-.31-.34-.42-.27a2.14,2.14,0,0,1-2.11.22.26.26,0,0,0-.22,0c-.28.24-.52.41-.52-.17,0-.1-.08-.06-.12,0a2.58,2.58,0,0,1-1.49.22c-.44-.06-.55.51-.17,1a3.25,3.25,0,0,0,2.93,1,8.28,8.28,0,0,0,2.7-.8c.28-.13.57-.25.84-.4s.29-.31.41,0-.14.27-.29.35l-1.44.72a7.06,7.06,0,0,1-4,.33c-.32-.09-.17.14-.17.2a1.58,1.58,0,0,0,1.9,1.63c.25,0,.5-.09.75-.14,1-.19,1.1-.19,1.06.86a1.68,1.68,0,0,0,1,1.6.47.47,0,0,0,.28.06c.09,0,.1-.1.07-.18-.26-.65.19-.93.64-1.18a2.18,2.18,0,0,1,.74-.32.2.2,0,0,0,.13-.36c-.07-.09-.05-.3-.27-.17-.7.42-1.47.09-2.2.19-.14,0-.23,0-.21-.2s.15-.15.26-.15a8.54,8.54,0,0,1,1.49,0c.4.07.51-.08.59-.39s.1-.68.29-.86c.57-.52.4-1.07.22-1.64-.08-1-.28-1.13-1.17-1.23C47.11,98.59,46.79,98.87,46.4,99Zm1.07-2.41c.85,0,.82,0,.85-.77a9.67,9.67,0,0,0-.26-1.74c-.07-.52-.17-1.06-.84-1.17l-1.66-.51c-2.52-.94-5.08-1.78-7.64-2.63L35.57,89c.16.46.24.81.39,1.14a3.61,3.61,0,0,0,2.23,2.21,13.94,13.94,0,0,0,4.62.68c.11,0,.32-.09.33.13s-.13.23-.3.23h-.3A15,15,0,0,1,38,92.67c-.12,0-.24-.23-.36-.08s0,.29,0,.45a3.43,3.43,0,0,0,2.63,2.38,11.32,11.32,0,0,0,5.36.13c.29-.06.41.06.35.35-.76.08-1.52.21-2.28.23a8.94,8.94,0,0,1-4.37-.73c-.18-.09-.31-.16-.29.13a1.56,1.56,0,0,0,1.35,1.21c.61,0,1.22-.12,1.83-.12C44,96.63,45.73,96.61,47.47,96.6Zm51.11,11.55c0,.13.15.12.25.09a43.18,43.18,0,0,0,5.15,1.82,8.88,8.88,0,0,0,2.58.25c.4,0,.57-.27.52-.55a5.34,5.34,0,0,0-.35-1.22,10.36,10.36,0,0,0-3.46-3.8c-3.52-2.69-7.18-5.17-10.85-7.65-2.54-1.71-5.05-3.46-7.5-5.3A9,9,0,0,0,83,90.5h0a3.19,3.19,0,0,0-.76-.61c-2-1.41-4.08-2.64-6.14-3.92-.74-.46-1.52-.86-2.3-1.26a8.09,8.09,0,0,0-2.17-.89,22.9,22.9,0,0,0-5.32-.52c-.06-.35.15-.37.42-.37a17.48,17.48,0,0,1,4.62.5c.09.15.2.14.33.06l-.23-.15c-1.09-.69-2.18-1.38-3.33-2h0C66,80,63.77,78.84,61.61,77.54c-3.25-2-6.66-3.65-9.65-6a6.89,6.89,0,0,0-4.7-1.35,1.9,1.9,0,0,0,.17.19l3.58,3c1.24,1,2.43,2.13,3.72,3.08,2,1.48,3.86,3.11,5.69,4.77.88.79,1.77,1.57,2.66,2.35.07.29.38.32.56.49,1.3,1.21,2.59,2.43,4,3.58.47.39.83,1,1.49,1.11h0c-.11.23.12.31.23.39,1.69,1.39,3.36,2.8,5.13,4.08.38.28.64.55,1.2.23a5,5,0,0,1,2.55-.25c.09.39-.18.39-.42.34a3.53,3.53,0,0,0-2,.24c-.1,0-.27,0-.27.13s.09.17.17.22c.74.51,1.49,1,2.21,1.53a.44.44,0,0,0,.51,0,5.75,5.75,0,0,1,2.19-.35c.16,0,.4.06.4.25s-.21.12-.36.11a5.18,5.18,0,0,0-2.22.34c.76.5,1.45.93,2.12,1.4a.59.59,0,0,0,.58.08,7.32,7.32,0,0,1,2.33-.27c.12,0,.3-.07.32.15s-.19.2-.33.2a9.35,9.35,0,0,0-1.83.12c-.12,0-.27,0-.3.15s.12.16.22.23c1,.62,1.93,1.25,2.9,1.87.05,0,.16.21.32,0a1.12,1.12,0,0,1,1.54-.12c-.35.27-.74.1-1.1.14-.13,0-.25.05-.27.17s.1.14.19.2q3,1.77,6,3.35c1.71.88,3.47,1.67,5.26,2.38.24.1.25.19.23.37a.83.83,0,0,1-.34,0,75.48,75.48,0,0,1-7.83-3.79c-2.2-1.23-4.36-2.52-6.47-3.89a6.37,6.37,0,0,0-1.59-.93.47.47,0,0,0,.26.37c.62.43,1.25.85,1.86,1.3a67.54,67.54,0,0,0,8.06,5.07c1.77,1,3.63,1.74,5.46,2.56.86.38,1.75.7,2.63,1ZM25.52,64.44a2,2,0,0,1,.56.16c1.26.4,2.43-.22,3.64-.33a.84.84,0,0,0,.5-.12,7.44,7.44,0,0,0,2.91-3.66,1.77,1.77,0,0,0,.11-1.13,3.31,3.31,0,0,0-1.37-1.74,20.26,20.26,0,0,0-4.79-2.22,92.42,92.42,0,0,0-9.21-3c-1.07-.27-1.83-.1-2.29.59A9.56,9.56,0,0,0,14,56.66a8.62,8.62,0,0,0-.28,3.54,13.06,13.06,0,0,0,2.7,6.48,7.3,7.3,0,0,0,4.35,2.57,1.77,1.77,0,0,0,2.08-1.82c0-.54,0-1.08,0-1.62a1.23,1.23,0,0,1,1.33-1.35ZM77.9,9.14V9c-.37-.1-.74-.18-1.1-.3-4.17-1.38-8.4-2.56-12.66-3.63C61.58,4.47,59,3.87,56.44,3.37,54.63,3,52.81,2.72,51,2.4s-3.9-.56-5.85-.81a35.11,35.11,0,0,0-4.41-.35c-2.63,0-5.26-.11-7.89.08A51.65,51.65,0,0,0,27,2.05a29.35,29.35,0,0,0-7.68,2.48,20.46,20.46,0,0,0-6.66,5.06,20.2,20.2,0,0,0-2.82,4.26,25.77,25.77,0,0,0-2.2,7.34A46.85,46.85,0,0,0,7.18,27c0,.78.09,1.58.09,2.37a4.55,4.55,0,0,0,0,.66c.24,1.6.29,3.23.59,4.83.24,1.28.42,2.57.67,3.85s.5,2.42.79,3.63a3.71,3.71,0,0,0,.43,1.34,41.66,41.66,0,0,1,.9-5.21A36.35,36.35,0,0,1,14.48,28.3a20.91,20.91,0,0,1,5.16-6,41.49,41.49,0,0,1,9.55-5.4A77,77,0,0,1,41.75,13c3.14-.73,6.31-1.28,9.49-1.78,2.24-.35,4.49-.59,6.75-.85,1.66-.19,3.32-.35,5-.48s3.34-.24,5-.35c1.48-.09,3-.15,4.44-.24,1.65-.1,3.3-.09,4.95-.13ZM28.26,80.88c-.65.07-1.27,0-1.56.71a1.59,1.59,0,0,0,.38,1.67,7.35,7.35,0,0,0,1.42,1.37,25.49,25.49,0,0,0,7.91,4.32c4.4,1.47,8.8,2.94,13.18,4.47A60.25,60.25,0,0,1,58.2,97a.68.68,0,0,0,.81,0,1.34,1.34,0,0,1,1.61.08c.15.08.34.28.46.2a.64.64,0,0,0,.2-.58,1,1,0,0,0-.48-.82,16.29,16.29,0,0,0-4-1.67,58.94,58.94,0,0,1-7.08-2.83c-2.44-1.19-4.86-2.42-7.23-3.73-1.36-.76-2.76-1.45-4.11-2.23a54.86,54.86,0,0,0-6.57-3.45A13.92,13.92,0,0,0,28.26,80.88ZM9.37,45.13a.48.48,0,0,0,.13-.58c-.31-1.33-.62-2.65-.9-4-.44-2.06-.79-4.14-1.11-6.23a43,43,0,0,1-.54-5,40.22,40.22,0,0,1,.56-9.64,24.89,24.89,0,0,1,2.19-6.38,20,20,0,0,1,5.25-6.42,21.94,21.94,0,0,1,5.51-3.28,33.36,33.36,0,0,1,8.15-2.2A49.6,49.6,0,0,1,35.14.87c2.17,0,4.34-.06,6.51.11,1.12.09,2.25.1,3.37.26,1.71.24,3.43.38,5.12.69s3.14.44,4.69.76c3.77.78,7.54,1.58,11.26,2.59s7.45,2,11.13,3.24A4.79,4.79,0,0,0,79.89,9c-1.61-.52-3.14-1-4.68-1.49-2.93-.86-5.84-1.76-8.8-2.51C62.64,4,58.85,3.11,55,2.39q-3.34-.62-6.69-1.16C46.66,1,45,.77,43.3.64Q40.14.38,37,.27C35.08.21,33.2.38,31.31.48A37.29,37.29,0,0,0,26.75,1,31.75,31.75,0,0,0,19.6,3.09a21.22,21.22,0,0,0-7.92,5.65A19.43,19.43,0,0,0,8.4,14.12a28,28,0,0,0-2,10.32,42.25,42.25,0,0,0,.11,4.89c.14,1.27.2,2.55.38,3.82.27,1.79.65,3.57.93,5.36A47.46,47.46,0,0,0,9.37,45.13ZM118.43,9.26h-.53c-1.67,0-3.34.06-5,.1-3.23.07-6.46-.06-9.69-.07-6.93,0-13.86-.15-20.79.07-2.84.09-5.69.11-8.53.23-1.41.06-2.82.14-4.23.17-.73,0-1.46,0-2.19.1-1.91.14-3.81.31-5.72.47-1,.08-2,.14-2.95.25-1.25.14-2.49.31-3.74.47s-2.65.29-4,.5c-2,.32-4,.69-6.05,1.07-2.41.46-4.79,1-7.16,1.67a64.13,64.13,0,0,0-9.78,3.42,41.62,41.62,0,0,0-7.62,4.34,20.31,20.31,0,0,0-4.6,4.71A29.46,29.46,0,0,0,12,34.9a48.53,48.53,0,0,0-1.58,6.82c-.28,1.7-.54,3.4-.72,5.12-.08.78-.24,1.55-.35,2.32s-.17,1.44-.24,2.17c0,.16,0,.36.19.36s.15-.19.17-.34c.22-1.87.36-3.76.58-5.63s.48-3.6.84-5.39a34.39,34.39,0,0,1,4.7-11.63,23.76,23.76,0,0,1,5.75-6.65,38.38,38.38,0,0,1,8.12-4.48,70.93,70.93,0,0,1,7.7-2.67,80.48,80.48,0,0,1,9.44-2.18c1.82-.3,3.63-.58,5.46-.79,1.64-.19,3.28-.39,4.93-.52,2.05-.17,4.09-.48,6.14-.7,1.8-.19,3.61-.35,5.42-.48s3.83-.28,5.74-.35,3.57-.14,5.35-.24c1.61-.09,3.23-.1,4.83-.1,6.75,0,13.5-.15,20.25.08,2.17.07,4.34,0,6.51-.09C113.62,9.44,116,9.54,118.43,9.26ZM47,73.57a.29.29,0,0,0,.12.29l3.65,3.78A10.91,10.91,0,0,1,52,79a1.67,1.67,0,0,0,.65.62,31.93,31.93,0,0,1,3,1.51c2.4,1.32,4.73,2.74,7,4.24s4.4,2.92,6.55,4.47a2.7,2.7,0,0,0,1.08.65c-.16-.42-.51-.55-.76-.77-1.6-1.4-3.22-2.79-4.8-4.21-1.84-1.65-3.65-3.33-5.49-5-.66-.6-1.31-1.2-2-1.75-1.25-1-2.54-1.95-3.78-3-1.85-1.52-3.65-3.1-5.5-4.63A6.84,6.84,0,0,0,46.61,70a28,28,0,0,0-3-.92c.49.7.78,1.31,1.46,1.63a16.46,16.46,0,0,1,1.75,1.09.41.41,0,0,0-.16-.38L44.56,69.9c-.1-.07-.3-.08-.15-.28s.21,0,.31.07.18.08.25.14c2.78,2,5.56,4.08,8.28,6.21,2,1.57,4,3.19,5.94,4.79.17.14.57.3.37.57s-.42-.19-.62-.36c-.66-.55-1.33-1.1-2-1.64-.06,0-.16-.22-.2-.11-.21.55-.41,0-.61,0s-.23-.22-.28-.09c-.13.4-.35.14-.47.06-2.37-1.6-4.73-3.2-7.05-4.86A5.11,5.11,0,0,0,47,73.57Zm8.52-2.11,3.2,2.37c.19.14.29.41.64.33a48.24,48.24,0,0,1,5.9-.68c1.32-.13,2.65-.11,4-.28.46-.06.93-.08,1.4-.16A9.13,9.13,0,0,1,73.76,73a9.66,9.66,0,0,0,2.55.39c1.07-.08,1.42-.61,1.29-2-.06-.56-.61-.76-1.48-.68-.63.05-1.24.19-1.86.26-1.23.13-2.46.27-3.7.35-2.05.14-4.1.3-6.16.35-2.24.06-4.48,0-6.72,0C57,71.65,56.28,71.53,55.49,71.46Zm1.77,27.32a6.89,6.89,0,0,0,1.08,0c.86-.14,1.8-.16,2.3-1.09.06-.1.15-.16,0-.29a1.48,1.48,0,0,0-1.47-.22c-.24.11-.49.41-.75.24a3.46,3.46,0,0,0-2.28-.31C55,97.19,53.75,97,52.53,97c-4.63.06-9.26-.09-13.9.11-1.15,0-2.3.13-3.46.17a8,8,0,0,0-2.39.31c-.36.13-.32.28-.18.52a1.51,1.51,0,0,0,1.64.57,43.36,43.36,0,0,1,5.37-.48c1.52,0,3,0,4.55,0,.92,0,1.84.1,2.76.11,1.57,0,3.13.17,4.7.22C53.5,98.58,55.38,98.77,57.27,98.78Zm9.59-21.51c-.26-.12-.53-.23-.48-.41s.38-.2.57-.15a2.34,2.34,0,0,0,1.79-.37c.8-.43,1.6-.86,2.4-1.28l3.21-1.67a9.43,9.43,0,0,0-2.6-.18c-.11,0-.28,0-.34,0-.34.36-.34.39-.75.2a.55.55,0,0,0-.57,0c-.22.6-.63.33-.95.21a2.77,2.77,0,0,0-1.62-.07,12.38,12.38,0,0,1-1.54.22c-.65.06-1.35,0-2,.07s-1.27-.26-1.63.52c0,.06-.37,0-.54-.05a4,4,0,0,0-2.33.07c1.65,1.41,3.4,2.56,5.11,3.78.13.09.19.06.29,0ZM25.64,89.86c.36-.11.7-.54,1.06-.07.11.15.16.22.35.13s.12-.23.07-.38c-.29-.92-.61-1.84-.84-2.78-.49-2-1.48-3.79-1.77-5.82a5.92,5.92,0,0,1-.21-2.59,2.56,2.56,0,0,0-.38-2.56c-.4-.47-.93-.8-1.36-1.23-.14-.14-.42-.32-.52-.27-.26.14-.11.39,0,.62s0,.42.08.64c.24,1,.48,1.92.64,2.9.27,1.63.5,3.27.9,4.87C24.2,85.53,25.22,87.6,25.64,89.86Zm39.26-11s-.06-.11-.1-.14a73.94,73.94,0,0,1-7-5.16A24,24,0,0,0,54,71c-1.25-.67-2.63-1-3.93-1.6a12.24,12.24,0,0,1-3.2-2.08c-.4-.35-.55-.14-.67.24A10.63,10.63,0,0,1,45.75,69c-.17.35,0,.44.26.51a6.69,6.69,0,0,0,2.07.36,5.92,5.92,0,0,1,3.77,1.2,49.41,49.41,0,0,0,5.4,3.58c1.81,1.06,3.62,2.13,5.45,3.17A8.56,8.56,0,0,0,64.91,78.89ZM16.27,70.49c.13-.34-.18-.4-.34-.54-.32-.29-.62-.16-.95,0-2.62,1.52-5.4,2.74-7.93,4.43-.85.57-1.69,1.07-1.8,2.23,0,.35,0,.54.25.46a7.16,7.16,0,0,0,2.19-.89,18.34,18.34,0,0,1,2.92-1.8,52.3,52.3,0,0,0,5.26-3.22A1.14,1.14,0,0,0,16.27,70.49Zm60.67,3a2.61,2.61,0,0,1-1.78.1,1.11,1.11,0,0,0-.79.16c-.61.34-1.22.68-1.84,1L65,78.56c.45.3.9.58,1.33.9a.47.47,0,0,0,.63,0c.62-.41,1.24-.81,1.89-1.16C70.93,77.19,73,76.13,75,75A5.13,5.13,0,0,0,76.94,73.49ZM74.43,94.26l.12-.17c-6.79-5-13.62-9.91-21.15-13.78a.18.18,0,0,0,0,.26,19.18,19.18,0,0,0,5,3.82c1.37.72,2.77,1.4,4.1,2.19,3.25,1.94,6.4,4,9.54,6.14C72.85,93.24,73.65,93.74,74.43,94.26Zm-17.5,2.5c-.05-.08-.07-.12-.09-.13-2.6-1.22-5.31-2.16-8-3.12-.15-.05-.32-.26-.47-.07s-.05.34,0,.51a7.26,7.26,0,0,1,.31,2.13c0,.45.1.56.55.55a30.23,30.23,0,0,1,3.9,0C54.38,96.78,55.63,96.66,56.93,96.76ZM126.74,28.4c-.1-.06-.2-.12-.3-.17L119.2,25c-2-.9-4-1.83-6-2.72-2.71-1.19-5.42-2.35-8.14-3.52-2.14-.92-4.28-1.86-6.44-2.74Q95,14.52,91.34,13.13c-2.72-1-5.47-2-8.19-3A2.59,2.59,0,0,0,82,10C97.3,15.23,112,22,126.74,28.4ZM38,63.23a26.05,26.05,0,0,1,3.3,3,1.58,1.58,0,0,0,1.18.56c.46,0,1,0,1.2-.63A1.48,1.48,0,0,0,43,64.52,10.46,10.46,0,0,0,39.37,63,1.64,1.64,0,0,0,38,63.23Zm4.42,4.41c.58.42.74,1.17,1.52,1.25.45,0,1,.44,1.3.27s.38-.85.57-1.29a1,1,0,0,0-.47-1.35c-.23-.14-.57-.44-.54-.5.31-.59-.32-.48-.52-.87C44.53,66.67,44.16,67.13,42.41,67.64ZM25.15,93.78c-.29.06-.52.32-.81.16-.1-.05-.13,0-.15.06-.11.62-.43,1.23-.12,1.88.09.2.16.35-.06.5a1.07,1.07,0,0,0-.38,1.29,2.68,2.68,0,0,1-.52,2.48,1.34,1.34,0,0,0-.24.83c0,.32.29.39.49.41s.2-.22.23-.4c.14-.88,0-1.84.61-2.58s.45-1.93.9-2.84A4.49,4.49,0,0,0,25.15,93.78ZM19.57,69.31A9.81,9.81,0,0,1,17.26,68c-.11-.08-.17-.29-.39-.14a2.56,2.56,0,0,0-1,.86c-.25.48-.18.82.32,1s.51.54.38.95c-.06.19-.11.35,0,.5C17.32,70.06,18.55,69.84,19.57,69.31ZM33.93,88.43A5.18,5.18,0,0,0,35,90.62a14.66,14.66,0,0,1,3,4.77,1.94,1.94,0,0,0,1.45,1.4l-.26-.35c-.48-.67-.6-1.52-1.2-2.16-.82-.88-.77-2.32-1.83-3.12a1.59,1.59,0,0,1-.54-1C35.45,89.22,35,88.53,33.93,88.43ZM45,71.11A5.56,5.56,0,0,0,46.72,73c2.26,1.35,4.35,3,6.52,4.49.3.2.57.52,1,.47C51.19,75.63,48.32,73.06,45,71.11Zm-9.23-9,.12-.2c-.23-.18-.47-.36-.7-.54a2,2,0,0,1-.58-.81c-.06-.14.23-.2,0-.37-.54-.41-1-.28-1.15.37a3.09,3.09,0,0,1-.22.61,7.56,7.56,0,0,1-1.94,2.52l-.25.26a.27.27,0,0,0-.09.36C32.39,63.16,33.69,61.77,35.75,62.09Zm-5.06,41c.22.09.46.11.56-.13s.15-.09.25-.06.14.05.09.09-.16.44-.39.49a.71.71,0,0,1-.68-.08.91.91,0,0,0-1.53.18c-.16.25-.48.55-.3.82s.5,0,.77-.05a2,2,0,0,0,.79-.36c.2-.12.35-.55.6-.31s-.25.32-.31.54a.79.79,0,0,0,0,.19c.57-.37,1-.94,1.64-1.08,0,0,0-.11,0-.17a3,3,0,0,1,.25-1c.13-.34,0-.49-.32-.44C31.33,101.78,31.12,101.66,30.69,103.05ZM52.95,92.27a68.75,68.75,0,0,0-6.14-4c.36.65.35,1.36.88,1.64A39.86,39.86,0,0,0,52.95,92.27ZM24.65,93.63a.8.8,0,0,0,.57-.5,1.11,1.11,0,0,1,.52-.62c.86-.46.76-1.28.84-2,0-.24,0-.52-.3-.54s-.34.23-.43.47A4.26,4.26,0,0,1,25,91.91C24.49,92.43,24.17,92.89,24.65,93.63ZM11.52,54.91c-.05.81-.54.36-.84.41a.44.44,0,0,1-.49-.64c.37-.46.13-.78-.06-1.13-.06-.11.08-.37-.19-.34a.4.4,0,0,0-.38.4,3.82,3.82,0,0,0,.32,2.31,1.08,1.08,0,0,0,1.38.43A1.13,1.13,0,0,0,11.52,54.91ZM46,107.41c-.12-1-1.32-1.78-.36-2.89,0,0,0-.19-.08-.25s-.14,0-.21.08c-.28.12-.52.35-.86.32-.13,0-.2,0-.24.18A2.84,2.84,0,0,0,46,107.41Zm-3.81-5c-.3-.71-.26-1.43-.71-1.84a2.35,2.35,0,0,1-.93-1.47.27.27,0,0,0-.27-.25,1.51,1.51,0,0,0-.52.22,1.05,1.05,0,0,0,.1.29A7.87,7.87,0,0,0,42.17,102.4Zm1.38.75a2.88,2.88,0,0,1,.19.54c.05.37.25.7.58.7a1.36,1.36,0,0,0,1-.46,1,1,0,0,0,0-1c-.09-.21-.44-.1-.7,0S43.94,103.07,43.55,103.15ZM9.71,51.55c0,.28-.08.57-.45.52-.16,0-.33-.28-.45-.08s.1.41.21.57.28.83.76.28c0,0,.08,0,.12,0,.6,0,.55-.29.34-.68A1.2,1.2,0,0,0,9.71,51.55ZM15,68.71c-.15-.33-.52-.34-.75-.55-.65-.58-.66-.61.07-1.08.16-.11.36-.17.51-.29s.28-.12.14-.32a.26.26,0,0,0-.4-.08c-.32.22-.65.44-1,.67a.47.47,0,0,0-.22.46A2.28,2.28,0,0,0,15,68.71ZM5.49,77.78c-.14.46.27.29.45.41s.4.06.43-.17.28-.39.5-.46.29,0,.21-.35-.28-.17-.39-.14a8.61,8.61,0,0,1-.89.25C5.6,77.35,5.37,77.48,5.49,77.78Zm43.57,26.06c.74-.53.64-1.36-.22-2.19C48.49,102.44,49.13,103.08,49.06,103.84Zm4.72-26.72.13-.17q-1.77-1.47-3.64-2.8l-.12.16ZM5.69,78.5c-.48-.13-.57.25-.79.43.27.15.17.66.57.64A.68.68,0,0,0,6.19,79C6.26,78.55,6,78.45,5.69,78.5ZM2.88,80a3,3,0,0,0,1.72-.39c.09,0,.33,0,.24-.25a.32.32,0,0,0-.41-.17,9.74,9.74,0,0,1-1.11.33C3,79.61,3,79.78,2.88,80ZM22.63,98.78c0,.3.11.62.4.58.47-.07.27-.6.42-.9s0-.46-.2-.43A.71.71,0,0,0,22.63,98.78ZM3.27,80.45a1.34,1.34,0,0,0-.84.09c-.18.08-.42.05-.44.36s.19.3.33.33.51.12.64-.21A5.36,5.36,0,0,1,3.27,80.45Zm27.19,23.88a3.69,3.69,0,0,1-1.88.36c-.11,0-.22.16-.19.32s.17.12.28.13A2.29,2.29,0,0,0,30.47,104.33ZM.64,81.66a1.54,1.54,0,0,1,1.3-1.34c-.92,0-1.52.11-1.46.26C.61,80.92.26,81.3.64,81.66Zm2.14-2.29a2,2,0,0,0-1,.1c-.16.05-.14.22-.22.33s0,.12.13.14A1.21,1.21,0,0,0,2.78,79.37Zm21.81,19a4.76,4.76,0,0,0-.42.88c-.09.26.07.34.2.4s.26-.08.31-.24A1.21,1.21,0,0,0,24.59,98.42Zm17.72,4.35.9,1.41C43.34,103.15,43.31,103.1,42.3,102.76ZM10.19,47.07c-.09.58-.08,1,.66,1.06A2.52,2.52,0,0,0,10.19,47.07Zm18.09,57.22c0-.19-.08-.23-.25-.23a.32.32,0,0,0-.35.37c0,.21.09.37.3.34S28.25,104.5,28.28,104.29Zm26.19-26.8c-.14-.16-.19-.47-.57-.41C54,77.34,54.15,77.52,54.47,77.49Zm-5.21-4.05c-.16-.18-.21-.4-.5-.3C48.82,73.35,48.92,73.48,49.26,73.44Zm.91.7c-.09-.19-.17-.38-.46-.26C49.8,74.08,49.9,74.24,50.17,74.14Zm-.47-.36c-.12-.18-.18-.38-.49-.26C49.33,73.68,49.39,73.88,49.7,73.78Zm-1.92-1.43c-.11-.21-.19-.39-.45-.28A.34.34,0,0,0,47.77,72.35ZM55,77.88c-.16-.18-.21-.4-.5-.3C54.58,77.79,54.68,77.92,55,77.88ZM48.25,72.7c-.09-.19-.17-.38-.46-.26C47.88,72.64,48,72.8,48.25,72.7Zm0,.11c0,.1.07.17.16.16a.3.3,0,0,0,.14-.05c0-.1-.06-.18-.18-.17A.41.41,0,0,0,48.28,72.81Zm7,5.47.19-.07c0-.06-.07-.14-.13-.17s-.16,0-.17.07S55.21,78.22,55.25,78.28Zm-.68-.16a.41.41,0,0,0-.14-.08c-.07,0-.16,0-.12.12a.15.15,0,0,0,.18.1S54.61,78.25,54.57,78.11ZM80.09,97.84l.19-.07c0-.06-.07-.14-.13-.17s-.16,0-.17.07S80,97.78,80.09,97.84Zm-5.24-3.52a.41.41,0,0,0-.14-.08c-.07,0-.16,0-.12.12a.15.15,0,0,0,.18.1S74.89,94.45,74.85,94.31Zm.16.16s-.08.06-.08.09.05.15.15.14.16,0,.12-.12S75.12,94.46,75,94.47ZM47,71.79s-.08.06-.08.09.05.15.15.14.16,0,.12-.12S47.16,71.78,47,71.79Zm23.4,18.72s-.08.06-.08.09.05.15.15.14.16,0,.12-.12S70.56,90.5,70.45,90.51Zm9.45,7c-.07-.06-.1-.12-.14-.12s-.22-.12-.22,0S79.72,97.5,79.9,97.47Zm-37.62,5.25c.1,0,.06-.09,0-.13s0-.24-.14-.15S42.18,102.65,42.28,102.72ZM54.65,78.38c.07.06.1.12.14.12s.22.12.22,0S54.83,78.34,54.65,78.38Zm.77.37c-.07-.06-.1-.12-.14-.12s-.22-.12-.22,0S55.24,78.78,55.42,78.75ZM75.3,94.83c.06,0,.1.1.14.1s.22.12.21,0S75.47,94.76,75.3,94.83ZM71.08,91l-.15-.07s0,.09,0,.09l.14.06S71.06,91,71.08,91ZM65.67,79.42l-.07.08a.51.51,0,0,0,.13.07s.05,0,.08-.06ZM75.88,95.08,75.72,95s0,.09,0,.09l.14.06S75.86,95.12,75.88,95.08Zm3.64,2.08-.15,0s0,0-.05.08l.15.08ZM46.83,73.37s-.07.08-.06.1a.42.42,0,0,0,.09.1s.06-.06.05-.07A.65.65,0,0,0,46.83,73.37Zm8.89,5-.15-.07s0,.09,0,.09l.14.06S55.7,78.44,55.72,78.4Zm1,5.42a.56.56,0,0,0,0-.12.31.31,0,0,0-.15,0c-.06,0-.05.05,0,.08Zm.78,1.62c.08,0,.08-.07,0-.09l-.13,0s0,.08,0,.09Z"/><path class="cls-2" d="M24.06,66.26l.13-.58V64.8c.76-.29,1.48.12,2.21.18a5.53,5.53,0,0,0,.81.07c.48,0,.54.13.29.5a.71.71,0,0,0-.06.22,1.49,1.49,0,0,0,.49,1.34c-.2.28.05.41.22.51,1.29.8,2.59,1.57,3.88,2.37l6.4,4,7.82,4.79,7.1,4.38a77.09,77.09,0,0,1,7,4.92c2.19,1.71,4.38,3.4,6.68,5s4.65,3,7.08,4.31,4.64,2.47,7,3.72c2.74,1.48,5.48,3,8.21,4.47a71.7,71.7,0,0,1,9.1,5.8,10.88,10.88,0,0,1,3.63,4,2.61,2.61,0,0,1,.27,1.13.94.94,0,0,1-1.18,1,19.37,19.37,0,0,1-3.85-1.13,75.66,75.66,0,0,1-9-4.17c-2.56-1.45-5.2-2.77-7.65-4.42-.27-.18-.56-.34-.86-.52.12-.07.21-.17.31-.17.25,0,.5-.07.43-.32s-.39-.12-.57,0c-.37.34-.65.14-1-.09-2.36-1.47-4.74-2.9-7.11-4.34a.45.45,0,0,1-.24-.25,14.52,14.52,0,0,1,2.47-.37c-.05-.16-.06-.42-.3-.32s-.79,0-1.16.12-.9,0-1,.59a4.06,4.06,0,0,1-1.37-.76c-1.12-.66-2.19-1.41-3.29-2.12-.12-.08-.28-.12-.24-.28s.2-.06.31-.09a9.46,9.46,0,0,1,2.37-.38c-.49-.61-1-.18-1.45-.18a2.08,2.08,0,0,0-.67.2,1.89,1.89,0,0,1-2.17-.56c-.29-.29-.75-.36-.94-.76.61.09,1.07-.46,1.68-.37.12,0,.13-.13.11-.22s-.19-.14-.29-.12c-.48.12-1,.24-1.44.4-.12,0,0,.21-.06.32a13.55,13.55,0,0,1-1.89-1.36,10.78,10.78,0,0,1-1.11-.87c-.12-.11-.36-.22-.3-.39s.27-.21.43-.26a6.92,6.92,0,0,0,1.48-.36,1.33,1.33,0,0,0-1.1-.08,2.8,2.8,0,0,0-1.11.43c-.17.15-.19,0-.25-.07-1.74-1.45-3.45-2.93-5.21-4.35-2.18-1.75-4.4-3.45-6.68-5.07-2.72-1.93-5.4-3.92-8.1-5.88S34.9,74.95,32.21,73a35.59,35.59,0,0,1-4.8-3.68c-.2-.21-.38-.45-.57-.68s-.27-.24-.36,0h-.11c-.11-.21.2-.67-.37-.6Zm52,36.89a2.38,2.38,0,0,0-1.15.11c-.1,0-.36,0-.3.26s.26.12.38.06a3.23,3.23,0,0,1,1-.12c.22,0,.63.2.62-.18S76.17,103.2,76.08,103.15Zm2.34,1.63c-.26.08-.53.18-.82.24s-.29.06-.23.24.2.1.33.08c.39-.07.76-.35,1.18-.09a.17.17,0,0,0,.26-.13c0-.15-.05-.2-.2-.22A4.4,4.4,0,0,1,78.41,104.78Z"/><path class="cls-2" d="M83,90.5a9,9,0,0,1,1.93,1.29c2.45,1.84,5,3.59,7.5,5.3,3.67,2.47,7.33,5,10.85,7.65a10.36,10.36,0,0,1,3.46,3.8,5.34,5.34,0,0,1,.35,1.22c.05.28-.12.55-.52.55a8.88,8.88,0,0,1-2.58-.25,43.18,43.18,0,0,1-5.15-1.82.22.22,0,0,0-.25-.09h0c0-.14-.06-.21-.16-.29l-1.88-1.42c0-.18,0-.28-.23-.37-1.79-.71-3.55-1.5-5.26-2.38q-3.06-1.58-6-3.35c-.09-.05-.21-.09-.19-.2s.14-.16.27-.17c.36,0,.75.13,1.1-.14a1.12,1.12,0,0,0-1.54.12c-.15.19-.26,0-.32,0-1-.61-1.93-1.25-2.9-1.87-.1-.06-.25-.1-.22-.23s.17-.13.3-.15a9.35,9.35,0,0,1,1.83-.12c.14,0,.35.07.33-.2s-.2-.14-.32-.15a7.32,7.32,0,0,0-2.33.27.59.59,0,0,1-.58-.08c-.66-.47-1.36-.9-2.12-1.4a5.18,5.18,0,0,1,2.22-.34c.15,0,.35.13.36-.11s-.23-.25-.4-.25a5.75,5.75,0,0,0-2.19.35.44.44,0,0,1-.51,0c-.72-.54-1.47-1-2.21-1.53-.08-.05-.17-.15-.17-.22s.18-.1.27-.13a3.53,3.53,0,0,1,2-.24c.24,0,.51,0,.42-.34l.09-.09c1.29.95,2.55,1.94,3.88,2.83,3.16,2.11,6.3,4.24,9.56,6.19,2.44,1.46,4.86,2.95,7.44,4.17a14.54,14.54,0,0,0,3,1.09c.11,0,.22.14.27,0s0-.21-.17-.24-.48-.14-.72-.22A31.56,31.56,0,0,1,95,103.68c-3.82-2.25-7.59-4.61-11.26-7.11a95.57,95.57,0,0,1-8.24-6.22c-1.83-1.56-3.79-3-5.7-4.43-.37-.28-.93-.38-1.06-.94a18.06,18.06,0,0,1,2.59.2c1.18.17,2.32.5,3.5.64.08,0,.2.2.27,0s0-.19-.17-.25a1.27,1.27,0,0,0-.33-.1c-.92-.18-1.82-.39-2.74-.54a13.61,13.61,0,0,0-2.75-.31c-.29,0-.4.09-.35.38-.06.1-.14,0-.19,0a19.56,19.56,0,0,1-2.21-1.7h0a22.9,22.9,0,0,1,5.32.52,8.09,8.09,0,0,1,2.17.89c.78.39,1.56.79,2.3,1.26,2.06,1.29,4.16,2.52,6.14,3.92a3.19,3.19,0,0,1,.76.61,1,1,0,0,1-.18,0c-1.77-.38-3.54-.77-5.34-1a5,5,0,0,0-1.68.05c.59.14,1.18.18,1.75.28,1.71.28,3.4.65,5.1,1C83,90.91,83,90.74,83,90.5Zm-2.52,1.57a7.52,7.52,0,0,1-1.85-1,18.64,18.64,0,0,0-2.79-1.31c-.09,0-.21-.19-.31.06s.14.22.2.25c.28.13.59.19.87.32a37,37,0,0,1,5.49,3.21,38.35,38.35,0,0,0,11.18,5.53c.5.15,1,.55,1.64.21a1.45,1.45,0,0,0-.34-.2,17.59,17.59,0,0,1-2.89-.87,42,42,0,0,1-6.33-3c-1.63-1-3.13-2.18-4.82-3.07-.06,0-.18-.11-.06-.23.21,0,.42,0,.64.08A38.76,38.76,0,0,1,86.79,94c.11,0,.39.27.49,0s-.22-.23-.35-.28A45.59,45.59,0,0,0,81,91.77C80.62,91.67,80.58,91.84,80.47,92.06Zm6,5.84a31.61,31.61,0,0,1,3.05,1.21c1.94.9,3.7,2.15,5.68,3a39.07,39.07,0,0,0,4.07,1.37c.12,0,.34.12.38-.13s-.12-.19-.26-.22a24.53,24.53,0,0,1-7.3-3,27.75,27.75,0,0,0-5-2.36A.49.49,0,0,0,86.47,97.9Zm-13-10.51c-.39,0-.43,0-.43.15,0,.31.26.19.4.19a22.5,22.5,0,0,1,4.87.9c.27.06.64.26.8,0,.06-.12-.4-.23-.66-.26-.05,0-.1-.06-.16-.07A23.46,23.46,0,0,0,73.47,87.4ZM77,87.13c0-.25-.11-.33-.29-.35a15.07,15.07,0,0,1-2.37-.57A10.92,10.92,0,0,0,71,85.94c-.13,0-.31,0-.27.2s.22,0,.3,0a13.7,13.7,0,0,1,3.88.54A7.52,7.52,0,0,0,77,87.13Z"/><path class="cls-3" d="M27.93,67.11a1.49,1.49,0,0,1-.49-1.34c.18.11.29.25.38-.13a.82.82,0,0,1,1-.7c1.55.3,2.6-.58,3.65-1.51a4.39,4.39,0,0,1,2.41-1.1,3.37,3.37,0,0,1,2.19.68,21.12,21.12,0,0,1,4.15,3.76,22.39,22.39,0,0,1,2.3,2.7,31.47,31.47,0,0,0,2.26,3.4c.56.67,1.2,1.26,1.78,1.91C48.68,76,49.9,77.15,51,78.37c1.42,1.54,2.93,3,4.36,4.52.63.67,1.18,1.41,1.77,2.13-.29.21-.38-.06-.52-.15-3.09-2-6.24-3.95-9.39-5.88l-9.19-5.64ZM33.08,65l-.1-.09c.35-.4.44-1,.91-1.29.07,0,.17-.11,0-.23s-.19-.08-.31,0a1.91,1.91,0,0,0-.57.77,3.14,3.14,0,0,1-1.78,1.71c-.56.15-1.13.26-1.68.45-.35.12-.84-.05-1.08.5a10.07,10.07,0,0,0,3.25-.83c1.24-.6,2.47-1.22,3.7-1.83.19-.09.5,0,.46-.39a5.58,5.58,0,0,0-.58.08c-.11,0-.2.13-.31.16C34.36,64.21,33.79,64.73,33.08,65Zm.34,1.18.1.09c-.72.77-1.77,1.11-2.47,1.9a9.18,9.18,0,0,0,2.19-1.23l.08.1c-.05.39-.38.52-.67.69s-.77.45-.32,1a.92.92,0,0,1,.26.7c0,.1,0,.28.15.24a.25.25,0,0,0,.2-.27,1.11,1.11,0,0,0-.34-.84c-.16-.13-.16-.25,0-.39A28.46,28.46,0,0,1,36,65.57l.08.1a1.13,1.13,0,0,1-.37.65,5.75,5.75,0,0,1-1.92,1.44c-.24.1-.46.24-.35.52a2.73,2.73,0,0,1,.1,1c0,.2.06.34.29.34a2.28,2.28,0,0,0,0-1.21c-.11-.3,0-.34.2-.41a5.37,5.37,0,0,0,2.23-1.93c.12-.17.29-.48.23-.57-.34-.46-.18-.83.22-1.23a2.15,2.15,0,0,0-.9.26c-1.45.61-2.79,1.44-4.19,2.16a6.2,6.2,0,0,1-1.25.44c-.23.06-.69-.19-.65.2s.5.1.77.14c.06,0,.13-.08.21-.1A16.91,16.91,0,0,0,33.43,66.13Z"/><path class="cls-4" d="M24.06,66.26,26,68.07a3.61,3.61,0,0,0,.38,2.16A12.89,12.89,0,0,0,30,73.69c2,1.41,3.83,3,5.68,4.56,1.26,1.07,2.5,2.17,3.75,3.26.43.37.88.72,1.32,1.09.13.11.22.15.34,0s0-.17-.09-.22c-.54-.39-1-.85-1.53-1.29-1.33-1.17-2.68-2.31-4-3.45-1.09-.92-2.18-1.86-3.3-2.74a32.85,32.85,0,0,1-4.57-3.7,3,3,0,0,1-1.14-2.52h.11a13.25,13.25,0,0,0,3.24,2.94c2.51,1.73,5,3.54,7.39,5.35,1.75,1.3,3.55,2.55,5.32,3.83,2.26,1.63,4.5,3.29,6.78,4.9,1.82,1.29,3.57,2.66,5.32,4,1.34,1.06,2.61,2.21,3.93,3.3,1.5,1.24,3,2.48,4.52,3.67s3.13,2.32,4.78,3.36c2.77,1.77,5.55,3.53,8.37,5.2,1.45.86,2.91,1.72,4.3,2.68l-.09.09a27.08,27.08,0,0,1-3.09-1.75c-1.71-1-3.45-2-5.2-3-2-1.12-3.94-2.35-5.92-3.52-1.27-.76-2.52-1.54-3.85-2.2-.4-.2-.75-.37-.69-1s-.54-1-1.06-1.3A14.51,14.51,0,0,0,57.36,94a18.55,18.55,0,0,1-5.44-2.83C48.73,89,45.43,87,42.21,84.85,39.43,83,36.73,81.06,34,79.08c-1.88-1.38-3.73-2.79-5.53-4.26a34,34,0,0,1-3.46-3.07,5.07,5.07,0,0,1-1.17-5C23.93,66.62,23.84,66.37,24.06,66.26Z"/><path class="cls-5" d="M14,56.66A9.56,9.56,0,0,1,15.57,53c.46-.69,1.22-.86,2.29-.59a92.42,92.42,0,0,1,9.21,3,20.26,20.26,0,0,1,4.79,2.22,3.31,3.31,0,0,1,1.37,1.74,1.77,1.77,0,0,1-.11,1.13,7.44,7.44,0,0,1-2.91,3.66.84.84,0,0,1-.5.12c-1.21.12-2.37.73-3.64.33a2,2,0,0,0-.56-.16,4.42,4.42,0,0,0-2.15-1.32c-2.66-1-4.74-2.78-6.9-4.5A18,18,0,0,0,14,56.66Z"/><path class="cls-6" d="M28.26,80.88a13.92,13.92,0,0,1,3.59,1,54.86,54.86,0,0,1,6.57,3.45c1.34.79,2.74,1.48,4.11,2.23,2.37,1.32,4.79,2.54,7.23,3.73a58.94,58.94,0,0,0,7.08,2.83,16.29,16.29,0,0,1,4,1.67,1,1,0,0,1,.48.82.64.64,0,0,1-.2.58c-.12.08-.31-.11-.46-.2A1.34,1.34,0,0,0,59,96.91a.68.68,0,0,1-.81,0,60.25,60.25,0,0,0-8.62-3.54c-4.38-1.53-8.78-3-13.18-4.47a25.49,25.49,0,0,1-7.91-4.32,7.35,7.35,0,0,1-1.42-1.37,1.59,1.59,0,0,1-.38-1.67C27,80.92,27.61,81,28.26,80.88Z"/><path class="cls-7" d="M14,56.66a18,18,0,0,1,2.45,2c2.16,1.72,4.24,3.53,6.9,4.5a4.42,4.42,0,0,1,2.15,1.32l-1.31,0a1.23,1.23,0,0,0-1.33,1.35c0,.54,0,1.08,0,1.62a1.77,1.77,0,0,1-2.08,1.82,7.3,7.3,0,0,1-4.35-2.57,13.06,13.06,0,0,1-2.7-6.48A8.62,8.62,0,0,1,14,56.66Z"/><path class="cls-2" d="M68.11,81.38c1.15.59,2.24,1.28,3.33,2l-.1.09a17.48,17.48,0,0,0-4.62-.5c-.27,0-.48,0-.42.37h0A8.24,8.24,0,0,1,65,82.39a7.69,7.69,0,0,1,3.73.17c.3.07.36-.07.36-.34a1.38,1.38,0,0,1-.37,0A11.68,11.68,0,0,0,65,82a.8.8,0,0,1-.66-.14c-.88-.71-1.82-1.34-2.71-2-1.49-1.19-3-2.36-4.41-3.63-.72-.64-1.41-1.31-2.18-1.89-1.13-.87-2.37-1.59-3.48-2.47-.14-.11-.29-.29-.44-.12s.15.31.24.37c1,.76,2.11,1.47,3.15,2.22,1.9,1.38,3.51,3.09,5.36,4.53s3.61,2.75,5.4,4.13a16.89,16.89,0,0,1,2.28,1.8h0a1.93,1.93,0,0,1-.57-.09c-1.21-.35-2.28-1-3.48-1.4-.38-.12-.41,0-.4.3h0c-.89-.78-1.78-1.56-2.66-2.35-1.84-1.66-3.7-3.29-5.69-4.77-1.29-1-2.48-2.05-3.72-3.08l-3.58-3a1.9,1.9,0,0,1-.17-.19A6.89,6.89,0,0,1,52,71.52c3,2.37,6.4,4.07,9.65,6,2.16,1.3,4.38,2.49,6.51,3.85a2.51,2.51,0,0,1-.54,0,11.41,11.41,0,0,0-3-.22c-.12,0-.31-.06-.3.17s.24.22.35.17a1.25,1.25,0,0,1,.87-.08c.8.21,1.63.13,2.44.31C68.22,81.78,68.07,81.5,68.11,81.38Z"/><path class="cls-8" d="M9.37,45.13a47.46,47.46,0,0,1-1.5-6.61c-.28-1.79-.66-3.57-.93-5.36-.19-1.26-.24-2.55-.38-3.82a42.25,42.25,0,0,1-.11-4.89,28,28,0,0,1,2-10.32,19.43,19.43,0,0,1,3.27-5.38A21.22,21.22,0,0,1,19.6,3.09,31.75,31.75,0,0,1,26.75,1,37.29,37.29,0,0,1,31.31.48C33.2.38,35.08.21,37,.27q3.17.11,6.34.36c1.68.14,3.36.34,5,.6q3.35.53,6.69,1.16C58.85,3.11,62.64,4,66.41,5c3,.76,5.87,1.65,8.8,2.51,1.54.45,3.06,1,4.68,1.49a4.79,4.79,0,0,1-2.67-.44c-3.68-1.2-7.4-2.23-11.13-3.24S58.6,3.47,54.83,2.69c-1.55-.32-3.13-.47-4.69-.76S46.72,1.48,45,1.24c-1.11-.16-2.24-.17-3.37-.26C39.48.81,37.31.86,35.14.87a49.6,49.6,0,0,0-6.53.57,33.36,33.36,0,0,0-8.15,2.2,21.94,21.94,0,0,0-5.51,3.28,20,20,0,0,0-5.25,6.42,24.89,24.89,0,0,0-2.19,6.38,40.22,40.22,0,0,0-.56,9.64,43,43,0,0,0,.54,5c.32,2.09.67,4.16,1.11,6.23.28,1.33.59,2.66.9,4A.48.48,0,0,1,9.37,45.13Z"/><path class="cls-9" d="M118.43,9.26c-2.4.27-4.81.18-7.21.26-2.17.07-4.34.16-6.51.09-6.75-.23-13.5-.08-20.25-.08-1.61,0-3.22,0-4.83.1q-2.67.14-5.35.24c-1.92.07-3.83.21-5.74.35s-3.61.29-5.42.48c-2.05.21-4.09.53-6.14.7-1.65.14-3.29.33-4.93.52-1.82.22-3.64.5-5.46.79a80.48,80.48,0,0,0-9.44,2.18,70.93,70.93,0,0,0-7.7,2.67,38.38,38.38,0,0,0-8.12,4.48,23.76,23.76,0,0,0-5.75,6.65,34.39,34.39,0,0,0-4.7,11.63c-.36,1.79-.63,3.58-.84,5.39s-.35,3.76-.58,5.63c0,.15,0,.34-.17.34s-.21-.2-.19-.36c.08-.72.15-1.45.24-2.17s.27-1.54.35-2.32c.17-1.72.44-3.42.72-5.12A48.53,48.53,0,0,1,12,34.9a29.46,29.46,0,0,1,3.9-8.14,20.31,20.31,0,0,1,4.6-4.71,41.62,41.62,0,0,1,7.62-4.34,64.13,64.13,0,0,1,9.78-3.42c2.37-.64,4.75-1.21,7.16-1.67,2-.38,4-.75,6.05-1.07,1.32-.21,2.65-.33,4-.5s2.49-.33,3.74-.47c1-.11,2-.17,2.95-.25,1.91-.16,3.81-.33,5.72-.47.73-.05,1.47-.08,2.19-.1,1.41,0,2.82-.11,4.23-.17,2.84-.12,5.69-.14,8.53-.23,6.93-.22,13.86-.09,20.79-.07,3.23,0,6.46.14,9.69.07,1.67,0,3.34-.09,5-.1Z"/><path class="cls-10" d="M45.91,88.94a14.93,14.93,0,0,1-2.32-1.18c-1.4-.73-2.77-1.55-4.17-2.29C37.25,84.3,35.15,83,32.89,82a13.44,13.44,0,0,0-1.49-.63,1.89,1.89,0,0,1-1.24-.95,3.32,3.32,0,0,0-1.74-1.33.53.53,0,0,1-.39-.58,1.76,1.76,0,0,0-.93-1.42,1.22,1.22,0,0,1-.51-1.61,1.42,1.42,0,0,0,0-.42c.26-.23.36-.62.74-.73a23.08,23.08,0,0,1,2.34,1.85c1.56,1.27,3.17,2.47,4.79,3.66,3.29,2.4,6.62,4.75,10,7l1.16.77A3.41,3.41,0,0,0,45.91,88.94Zm-16-10.81a7,7,0,0,1,1.59.32c.16,0,.39.16.44-.06s-.19-.25-.38-.25a.94.94,0,0,1-.22-.07,2.89,2.89,0,0,0-2.72.19c-.13.09-.32.14-.21.34s.23,0,.35-.06A2.77,2.77,0,0,1,29.93,78.13Zm5,2.26c0-.13-.14-.09-.21-.08a7.94,7.94,0,0,0-2.52.6c-.08,0-.24.08-.14.24a.18.18,0,0,0,.25.09,7.19,7.19,0,0,1,2.41-.57C34.9,80.65,34.86,80.49,34.94,80.39Z"/><path class="cls-10" d="M47,73.57a5.11,5.11,0,0,1,1.37.84c2.32,1.67,4.68,3.27,7.05,4.86.12.08.33.34.47-.06,0-.13.19.09.28.09s.4.55.61,0c0-.11.14.06.2.11.67.54,1.34,1.09,2,1.64.2.17.54.48.62.36s-.2-.43-.37-.57c-2-1.6-3.94-3.22-5.94-4.79-2.72-2.13-5.5-4.16-8.28-6.21-.08-.06-.17-.09-.25-.14s-.16-.26-.31-.07,0,.2.15.28l2.13,1.53a.41.41,0,0,1,.16.38,16.46,16.46,0,0,0-1.75-1.09c-.69-.32-1-.93-1.46-1.63a28,28,0,0,1,3,.92A6.84,6.84,0,0,1,48,71.2c1.85,1.53,3.65,3.11,5.5,4.63,1.24,1,2.53,2,3.78,3,.69.56,1.34,1.16,2,1.75,1.83,1.66,3.64,3.34,5.49,5,1.58,1.42,3.2,2.81,4.8,4.21.25.22.6.35.76.77a2.7,2.7,0,0,1-1.08-.65c-2.15-1.54-4.34-3-6.55-4.47s-4.62-2.92-7-4.24a31.93,31.93,0,0,0-3-1.51A1.67,1.67,0,0,1,52,79a10.91,10.91,0,0,0-1.29-1.39L47.1,73.86A.29.29,0,0,1,47,73.57Z"/><path class="cls-11" d="M55.49,71.46c.79.07,1.49.19,2.19.19,2.24,0,4.48.06,6.72,0,2.05-.06,4.11-.21,6.16-.35,1.24-.09,2.47-.23,3.7-.35.62-.06,1.23-.2,1.86-.26.86-.08,1.42.13,1.48.68.14,1.37-.22,1.9-1.29,2A9.66,9.66,0,0,1,73.76,73a9.13,9.13,0,0,0-3.18.07c-.46.08-.94.1-1.4.16-1.31.17-2.64.15-4,.28a48.24,48.24,0,0,0-5.9.68c-.35.08-.45-.19-.64-.33Z"/><path class="cls-12" d="M57.27,98.78c-1.89,0-3.77-.2-5.65-.27-1.56-.05-3.13-.21-4.7-.22-.92,0-1.84-.1-2.76-.11-1.52,0-3,0-4.55,0a43.36,43.36,0,0,0-5.37.48,1.51,1.51,0,0,1-1.64-.57c-.13-.24-.17-.4.18-.52a8,8,0,0,1,2.39-.31c1.15,0,2.3-.12,3.46-.17,4.63-.2,9.26-.05,13.9-.11,1.22,0,2.42.21,3.64.13a3.46,3.46,0,0,1,2.28.31c.26.17.51-.13.75-.24a1.48,1.48,0,0,1,1.47.22c.13.13,0,.19,0,.29-.5.93-1.43,1-2.3,1.09A6.89,6.89,0,0,1,57.27,98.78Z"/><path class="cls-10" d="M46,95.9c.06-.29-.05-.41-.35-.35a11.32,11.32,0,0,1-5.36-.13A3.43,3.43,0,0,1,37.69,93c0-.16-.11-.32,0-.45s.25,0,.36.08a15,15,0,0,0,4.49.71h.3c.16,0,.3-.08.3-.23s-.21-.13-.33-.13a13.94,13.94,0,0,1-4.62-.68A3.61,3.61,0,0,1,36,90.14c-.15-.33-.24-.68-.39-1.14l2.36.78c2.56.85,5.12,1.69,7.64,2.63.09.88.51,1.68.65,2.55C46.27,95.29,46.45,95.66,46,95.9Z"/><path class="cls-2" d="M78.19,93.15a5,5,0,0,0-2.55.25c-.56.32-.82,0-1.2-.23-1.77-1.29-3.45-2.69-5.13-4.08-.11-.09-.34-.16-.23-.39.21,0,.42,0,.64-.05.63-.1,1.18-.67,1.89-.32.08,0,.18-.07.21-.17s0-.17-.15-.17c-.37,0-.73-.16-1.12,0a2.7,2.7,0,0,1-1.16.33c-.22,0-.31.15-.29.36-.66-.14-1-.71-1.49-1.11-1.36-1.14-2.65-2.36-4-3.58-.18-.17-.48-.2-.56-.49h0a3.68,3.68,0,0,1,1.16.34c.95.33,1.82.85,2.78,1.14.32.1.55.16.52-.29h0a19.19,19.19,0,0,1,2.38,1.66,1.81,1.81,0,0,1-.49,0,2.89,2.89,0,0,0-2,.2c-.06,0-.29,0-.16.26s.19.06.26,0a3.92,3.92,0,0,1,2.14-.18c.09,0,.22.1.23,0,.05-.39.17-.15.3-.06L73.27,89c.16.12.41.15.41.43a8,8,0,0,0-2.68.36c-.1,0-.28,0-.21.18s.11.14.27.1a4.7,4.7,0,0,1,1.15-.21c.83,0,1.71-.34,2.48.22.5.37,1,.8,1.42,1.2-1-.12-2,.4-2.95.2a.27.27,0,0,0-.33.19c0,.14.06.17.16.16,1-.09,2.14.13,3.13-.38.13-.07.18,0,.25.06l1.91,1.56Z"/><path class="cls-13" d="M27.33,74.29c-.38.11-.48.5-.74.73-.12,0-.27-.27-.35,0a1.93,1.93,0,0,0,.68,2.28,1.9,1.9,0,0,1,.72.85c0,.13.08.29,0,.39s-.21,0-.33,0a3.07,3.07,0,0,1-2-2.08,4.25,4.25,0,0,0-1.51-2.24c-.76-.61-1.36-1.4-2.13-2-.29-.22-.42-.14-.53.15h0A5.68,5.68,0,0,1,20,69.79c0-.24,0-.36.32-.3a2.72,2.72,0,0,0,2.11-.35,1.8,1.8,0,0,0,.8-1.49c0-.6,0-1.2,0-1.79,0-.78.17-1,.95-1v.87c-.11.08-.28-.26-.35.06a12,12,0,0,0-.5,2.46c-.05,2.1,1.09,3.52,2.54,4.8A9.54,9.54,0,0,1,27.33,74.29ZM22.15,70c-.25.06-.17.21-.12.36a6,6,0,0,0,1,1.69c.76,1,2.09,1.41,2.85,2.45a.19.19,0,0,0,.27,0c.11-.09,0-.16,0-.25a3.05,3.05,0,0,0-1.32-1.14,5.61,5.61,0,0,1-2.45-2.82C22.33,70.19,22.31,70,22.15,70Z"/><path class="cls-14" d="M25.64,89.86c-.42-2.26-1.44-4.33-2-6.55-.4-1.61-.63-3.24-.9-4.87-.16-1-.4-1.94-.64-2.9-.06-.22,0-.44-.08-.64s-.23-.48,0-.62c.1-.05.38.13.52.27.44.43,1,.76,1.36,1.23a2.56,2.56,0,0,1,.38,2.56,5.92,5.92,0,0,0,.21,2.59c.29,2,1.28,3.85,1.77,5.82.23.94.55,1.85.84,2.78,0,.16.14.27-.07.38s-.24,0-.35-.13C26.35,89.31,26,89.74,25.64,89.86Z"/><path class="cls-15" d="M64.91,78.89a8.56,8.56,0,0,1-2.22-1.09c-1.83-1-3.63-2.11-5.45-3.17a49.41,49.41,0,0,1-5.4-3.58,5.92,5.92,0,0,0-3.77-1.2A6.69,6.69,0,0,1,46,69.49c-.21-.07-.43-.16-.26-.51a10.63,10.63,0,0,0,.49-1.43c.12-.39.27-.6.67-.24a12.24,12.24,0,0,0,3.2,2.08c1.3.56,2.68.93,3.93,1.6a24,24,0,0,1,3.8,2.61,73.94,73.94,0,0,0,7,5.16S64.88,78.85,64.91,78.89Z"/><path class="cls-10" d="M10.75,52.57c-.16-.49-.29-1-.83-1.26-.22-.11-.15-.37-.11-.55.15-.81.19-1.63.26-2.48a2.18,2.18,0,0,1,1.38.76,7.26,7.26,0,0,0,3.46,2.08,7.31,7.31,0,0,1,1.58.8,5.32,5.32,0,0,0-2.25,2.84l-.36.83c-.09-.13-.16-.27-.26-.39a5.23,5.23,0,0,0-2.27-1.66l-.23-.23C11.19,53,10.86,52.82,10.75,52.57Z"/><path class="cls-16" d="M16.27,70.49a1.14,1.14,0,0,1-.4.7,52.3,52.3,0,0,1-5.26,3.22,18.34,18.34,0,0,0-2.92,1.8,7.16,7.16,0,0,1-2.19.89c-.23.08-.29-.11-.25-.46.11-1.15,1-1.66,1.8-2.23C9.58,72.71,12.36,71.5,15,70c.32-.19.63-.32.95,0C16.09,70.09,16.4,70.14,16.27,70.49Z"/><path class="cls-11" d="M76.94,73.49A5.13,5.13,0,0,1,75,75c-2,1.12-4.12,2.18-6.17,3.28-.65.35-1.27.75-1.89,1.16a.47.47,0,0,1-.63,0c-.43-.31-.89-.6-1.33-.9l7.5-3.82c.62-.32,1.23-.66,1.84-1a1.11,1.11,0,0,1,.79-.16A2.61,2.61,0,0,0,76.94,73.49Z"/><path class="cls-10" d="M74.43,94.26c-.79-.51-1.58-1-2.36-1.54-3.14-2.11-6.29-4.2-9.54-6.14-1.33-.79-2.73-1.46-4.1-2.19a19.18,19.18,0,0,1-5-3.82.18.18,0,0,1,0-.26c7.52,3.87,14.36,8.79,21.15,13.78Z"/><path class="cls-10" d="M48.78,99.87c.18.58.35,1.13-.22,1.64-.2.18-.21.56-.29.86s-.19.46-.59.39a8.54,8.54,0,0,0-1.49,0c-.11,0-.25,0-.26.15s.07.22.21.2c.73-.1,1.5.23,2.2-.19.22-.13.2.08.27.17a.2.2,0,0,1-.13.36,2.18,2.18,0,0,0-.74.32c-.45.25-.9.54-.64,1.18,0,.09,0,.17-.07.18a.47.47,0,0,1-.28-.06,1.68,1.68,0,0,1-1-1.6c0-1.05,0-1.06-1.06-.86-.25,0-.49.11-.75.14a1.58,1.58,0,0,1-1.9-1.63c0-.06-.15-.3.17-.2a7.06,7.06,0,0,0,4-.33A3.07,3.07,0,0,0,48.78,99.87Z"/><path class="cls-13" d="M13.38,60a13,13,0,0,0,2.4,6.38,4.57,4.57,0,0,1-2.15-1.56,17.61,17.61,0,0,1-2.75-5.52A18.2,18.2,0,0,1,10,56.55a1.42,1.42,0,0,0,1.33.13,2.25,2.25,0,0,0,.6,1.07C12.52,58.46,12.76,59.35,13.38,60Z"/><path class="cls-10" d="M96.54,106.45l1.88,1.42c.11.08.18.15.16.29-.88-.35-1.77-.66-2.63-1-1.84-.82-3.69-1.6-5.46-2.56a67.54,67.54,0,0,1-8.06-5.07c-.61-.45-1.24-.87-1.86-1.3a.47.47,0,0,1-.26-.37,6.37,6.37,0,0,1,1.59.93c2.11,1.37,4.27,2.66,6.47,3.89a75.48,75.48,0,0,0,7.83,3.79A.83.83,0,0,0,96.54,106.45Z"/><path class="cls-8" d="M126.74,28.4C112,22,97.3,15.23,82,10a2.59,2.59,0,0,1,1.16.06c2.73,1,5.47,2,8.19,3Q95,14.52,98.61,16c2.16.88,4.3,1.82,6.44,2.74,2.72,1.17,5.43,2.33,8.14,3.52,2,.89,4,1.82,6,2.72l7.24,3.25C126.54,28.27,126.64,28.34,126.74,28.4Z"/><path class="cls-17" d="M38,63.23A1.64,1.64,0,0,1,39.37,63,10.46,10.46,0,0,1,43,64.52a1.48,1.48,0,0,1,.65,1.69c-.21.62-.74.63-1.2.63a1.58,1.58,0,0,1-1.18-.56A26.05,26.05,0,0,0,38,63.23Z"/><path class="cls-13" d="M46,95.9c.42-.24.24-.61.19-.94-.14-.87-.56-1.66-.65-2.55l1.66.51a7.76,7.76,0,0,1,.24,3.68c-1.74,0-3.47,0-5.21,0-.62,0-1.22.08-1.83.12a1.56,1.56,0,0,1-1.35-1.21c0-.28.12-.21.29-.13a8.94,8.94,0,0,0,4.37.73C44.51,96.11,45.27,96,46,95.9Z"/><path class="cls-10" d="M46.75,100a8.28,8.28,0,0,1-2.7.8,3.25,3.25,0,0,1-2.93-1c-.38-.46-.27-1,.17-1a2.58,2.58,0,0,0,1.49-.22s.12-.06.12,0c0,.58.24.41.52.17a.26.26,0,0,1,.22,0,2.14,2.14,0,0,0,2.11-.22c.12-.07.53-.22.42.27,0,0,.14.12.21.17A3.13,3.13,0,0,0,46.75,100Z"/><path class="cls-16" d="M24.68,76.09c.36.37.3.91.54,1.32a3.85,3.85,0,0,0,2,1.44A12.13,12.13,0,0,1,29.37,80c.33.24.45.57.76.92-1.49-.35-2.95-.88-3.94.86a12.8,12.8,0,0,0-.57-1.15,1.93,1.93,0,0,1-.4-1.19A5.71,5.71,0,0,0,24.81,77a4.78,4.78,0,0,0-.23-.84Z"/><path class="cls-18" d="M42.41,67.64c1.75-.51,2.12-1,1.87-2.5.2.39.82.28.52.87,0,.06.31.36.54.5a1,1,0,0,1,.47,1.35c-.19.44-.24,1.08-.57,1.29s-.85-.22-1.3-.27C43.15,68.81,43,68.06,42.41,67.64Z"/><path class="cls-16" d="M25.15,93.78a4.49,4.49,0,0,1,0,1.78c-.45.92-.22,2-.9,2.84s-.46,1.71-.61,2.58c0,.18,0,.43-.23.4s-.48-.09-.49-.41a1.34,1.34,0,0,1,.24-.83,2.68,2.68,0,0,0,.52-2.48A1.07,1.07,0,0,1,24,96.39c.22-.15.16-.3.06-.5-.31-.64,0-1.26.12-1.88,0-.1,0-.12.15-.06C24.63,94.1,24.86,93.84,25.15,93.78Z"/><path class="cls-16" d="M19.57,69.31c-1,.53-2.25.75-3,1.87-.15-.15-.1-.31,0-.5.13-.41.12-.76-.38-.95s-.57-.52-.32-1a2.56,2.56,0,0,1,1-.86c.21-.15.27.06.39.14A9.81,9.81,0,0,0,19.57,69.31Z"/><path class="cls-16" d="M33.93,88.43c1.09.11,1.52.79,1.71,1.77a1.59,1.59,0,0,0,.54,1c1.05.79,1,2.23,1.83,3.12.6.64.72,1.49,1.2,2.16l.26.35A1.94,1.94,0,0,1,38,95.38a14.66,14.66,0,0,0-3-4.77A5.18,5.18,0,0,1,33.93,88.43Z"/><path class="cls-10" d="M45,71.11c3.34,2,6.21,4.52,9.27,6.83-.45,0-.72-.27-1-.47C51.07,76,49,74.33,46.72,73A5.56,5.56,0,0,1,45,71.11Z"/><path class="cls-19" d="M11.35,53.54a5.23,5.23,0,0,1,2.27,1.66c.1.12.17.26.26.39-.07.72-.34,1.39-.43,2.11a6.62,6.62,0,0,1-.08.88l-1.43-2.53A3.17,3.17,0,0,0,11.35,53.54Z"/><path class="cls-20" d="M35.75,62.09c-2.06-.32-3.35,1.07-4.79,2.19a.27.27,0,0,1,.09-.36l.25-.26a7.56,7.56,0,0,0,1.94-2.52,3.09,3.09,0,0,0,.22-.61c.13-.65.61-.78,1.15-.37.22.17-.07.23,0,.37a2,2,0,0,0,.58.81c.23.19.46.36.7.54Z"/><path class="cls-16" d="M30.69,103.05c.43-1.39.64-1.27,1.47-1.39.35,0,.45.1.32.44a3,3,0,0,0-.25,1c0,.06,0,.16,0,.17-.67.14-1.07.72-1.64,1.08a.79.79,0,0,1,0-.19c.06-.21.51-.35.31-.54s-.4.18-.6.31a2,2,0,0,1-.79.36c-.26,0-.61.28-.77.05s.14-.57.3-.82a.91.91,0,0,1,1.53-.18.71.71,0,0,0,.68.08c.23,0,.22-.35.39-.49s0-.07-.09-.09-.16-.14-.25.06S30.91,103.14,30.69,103.05Z"/><path class="cls-21" d="M46.81,88.25a68.75,68.75,0,0,1,6.14,4"/><path class="cls-16" d="M32.6,98.66a2.22,2.22,0,0,0,1.06.38,11.66,11.66,0,0,0-.73,2.46c-.42-.1-.78-.33-1.21-.12-.16.08-.4-.42-.3-.72.14-.45.12-1,.75-1.18.3-.09.44-.48.45-.84Z"/><path class="cls-8" d="M24.65,93.63c-.49-.74-.16-1.19.4-1.72a4.26,4.26,0,0,0,.81-1.51c.1-.24.18-.49.43-.47s.32.3.3.54c-.07.76,0,1.58-.84,2a1.11,1.11,0,0,0-.52.62A.8.8,0,0,1,24.65,93.63Z"/><path class="cls-22" d="M11.52,54.91a1.13,1.13,0,0,1-.25,1.43,1.08,1.08,0,0,1-1.38-.43,3.82,3.82,0,0,1-.32-2.31.4.4,0,0,1,.38-.4c.27,0,.13.23.19.34.18.36.43.67.06,1.13a.44.44,0,0,0,.49.64C11,55.26,11.46,55.72,11.52,54.91Z"/><path class="cls-13" d="M46.75,100A3.13,3.13,0,0,1,46.4,99c.4-.14.71-.43,1.21-.37.88.1,1.09.25,1.17,1.23a3.07,3.07,0,0,1-2.51.71l1.44-.72c.14-.07.37-.17.29-.35s-.27,0-.41,0S47,99.83,46.75,100Z"/><path class="cls-23" d="M35.36,60.85a13.93,13.93,0,0,1,4,1.81,4.79,4.79,0,0,0-1.59.21c-.49.14-.93-.26-1.18-.54a14.86,14.86,0,0,1-1.32-1.4Z"/><path class="cls-10" d="M11.94,56.05l1.43,2.53a6.58,6.58,0,0,0,0,1.43c-.62-.66-.86-1.56-1.41-2.26a2.25,2.25,0,0,1-.6-1.07A2.24,2.24,0,0,0,11.94,56.05Z"/><path class="cls-16" d="M46,107.41a2.84,2.84,0,0,1-1.75-2.56c0-.16.11-.19.24-.18.34,0,.58-.19.86-.32.07,0,.1-.21.21-.08s.11.21.08.25C44.66,105.62,45.86,106.42,46,107.41Z"/><path class="cls-16" d="M42.17,102.4a7.87,7.87,0,0,1-2.34-3,1.05,1.05,0,0,1-.1-.29,1.51,1.51,0,0,1,.52-.22.27.27,0,0,1,.27.25,2.35,2.35,0,0,0,.93,1.47C41.91,101,41.87,101.69,42.17,102.4Z"/><path class="cls-24" d="M47.47,96.6a7.76,7.76,0,0,0-.24-3.68c.66.12.77.65.84,1.17a9.67,9.67,0,0,1,.26,1.74C48.29,96.64,48.31,96.65,47.47,96.6Z"/><path class="cls-16" d="M21.07,72.39c.71.18,1.1.8,1.61,1.23a5.53,5.53,0,0,1,2,2.47l-.1.08a6.28,6.28,0,0,0-2.2-2.09c-.85-.39-.94-1.1-1.31-1.71Z"/><path class="cls-14" d="M43.55,103.15c.38-.07.77-.12,1.14-.22s.6-.18.7,0a1,1,0,0,1,0,1,1.36,1.36,0,0,1-1,.46c-.33,0-.53-.33-.58-.7A2.88,2.88,0,0,0,43.55,103.15Z"/><path class="cls-25" d="M9.71,51.55a1.2,1.2,0,0,1,.53.59c.21.39.26.7-.34.68,0,0-.1,0-.12,0-.48.55-.59,0-.76-.28s-.32-.38-.21-.57.3.06.45.08C9.63,52.12,9.68,51.83,9.71,51.55Z"/><path class="cls-12" d="M15,68.71a2.28,2.28,0,0,1-1.62-1.19.47.47,0,0,1,.22-.46c.32-.23.64-.45,1-.67a.26.26,0,0,1,.4.08c.14.19-.06.25-.14.32s-.34.18-.51.29c-.72.47-.72.5-.07,1.08C14.5,68.37,14.87,68.38,15,68.71Z"/><path class="cls-24" d="M45.91,88.94a3.41,3.41,0,0,1-.25-1.43c.67.43.67.43,1.34,2A3.8,3.8,0,0,1,45.91,88.94Z"/><path class="cls-16" d="M5.49,77.78c-.11-.3.12-.43.31-.46a8.61,8.61,0,0,0,.89-.25c.1,0,.29-.24.39.14s0,.29-.21.35-.46.14-.5.46-.18.32-.43.17S5.35,78.24,5.49,77.78Z"/><path class="cls-16" d="M49.06,103.84c.07-.76-.57-1.4-.22-2.19C49.7,102.49,49.8,103.31,49.06,103.84Z"/><path class="cls-10" d="M53.78,77.12l-3.63-2.81.12-.16q1.87,1.33,3.64,2.8Z"/><path class="cls-16" d="M5.69,78.5c.31,0,.57.05.5.51a.68.68,0,0,1-.72.56c-.4,0-.3-.49-.57-.64C5.11,78.75,5.21,78.36,5.69,78.5Z"/><path class="cls-13" d="M8.94,49.45c.1.44-.18.83-.1,1.28a1.43,1.43,0,0,1-.37-2Z"/><path class="cls-16" d="M2.88,80c.07-.26.15-.43.46-.48a9.74,9.74,0,0,0,1.11-.33.32.32,0,0,1,.41.17c.09.21-.15.21-.24.25A3,3,0,0,1,2.88,80Z"/><path class="cls-16" d="M22.63,98.78a.71.71,0,0,1,.62-.75c.16,0,.28.27.2.43s0,.83-.42.9C22.74,99.4,22.6,99.08,22.63,98.78Z"/><path class="cls-16" d="M32.61,98.65c-.48,0-.43.7-.91.72-.12-.09-.08-.22-.07-.33,0-.38,0-.91.34-1s.41.43.62.66Z"/><path class="cls-16" d="M3.27,80.45A5.36,5.36,0,0,0,3,81c-.14.34-.41.27-.64.21S2,81.16,2,80.9s.26-.28.44-.36A1.34,1.34,0,0,1,3.27,80.45Z"/><path class="cls-16" d="M30.47,104.33a2.29,2.29,0,0,1-1.79.81c-.11,0-.25,0-.28-.13s.08-.34.19-.32A3.69,3.69,0,0,0,30.47,104.33Z"/><path class="cls-16" d="M.64,81.66c-.38-.36,0-.73-.16-1.07-.05-.15.54-.29,1.46-.26A1.54,1.54,0,0,0,.64,81.66Z"/><path class="cls-16" d="M2.78,79.37a1.21,1.21,0,0,1-1.12.57c-.09,0-.18-.08-.13-.14s.06-.28.22-.33A2,2,0,0,1,2.78,79.37Z"/><path class="cls-16" d="M24.59,98.42a1.21,1.21,0,0,1,.08,1c0,.16-.12.33-.31.24s-.29-.14-.2-.4A4.76,4.76,0,0,1,24.59,98.42Z"/><path class="cls-16" d="M42.3,102.76c1,.34,1,.39.9,1.41Z"/><path class="cls-10" d="M8.94,49.45l-.47-.71c0-.29.2-.52.48-.45s.11.37.12.56A2.66,2.66,0,0,1,8.94,49.45Z"/><path class="cls-22" d="M14.48,50.05c.51.1.78.48,1.12.9a1.28,1.28,0,0,1-1.17-.84Z"/><path class="cls-22" d="M14.43,50.12c-.35-.11-.66-.3-1.06,0-.16.11-.4-.11-.63-.33a2.1,2.1,0,0,1,1.74.3Z"/><path class="cls-12" d="M10.19,47.07a2.52,2.52,0,0,1,.66,1.06C10.1,48.11,10.1,47.65,10.19,47.07Z"/><path class="cls-16" d="M28.28,104.29c0,.2-.05.44-.3.48s-.3-.14-.3-.34a.32.32,0,0,1,.35-.37C28.19,104.06,28.3,104.1,28.28,104.29Z"/><path class="cls-19" d="M10.75,52.57c.11.25.45.39.37.74C10.7,53.21,10.49,53,10.75,52.57Z"/><path class="cls-10" d="M54.47,77.49c-.31,0-.45-.15-.57-.41C54.27,77,54.32,77.33,54.47,77.49Z"/><path class="cls-10" d="M49.26,73.44c-.34,0-.44-.09-.5-.3C49,73,49.1,73.26,49.26,73.44Z"/><path class="cls-10" d="M50.17,74.14c-.27.1-.36-.06-.46-.26C50,73.76,50.07,73.95,50.17,74.14Z"/><path class="cls-10" d="M49.7,73.78c-.31.11-.37-.1-.49-.26C49.52,73.39,49.58,73.59,49.7,73.78Z"/><path class="cls-10" d="M47.77,72.35a.34.34,0,0,1-.45-.28C47.58,72,47.67,72.14,47.77,72.35Z"/><path class="cls-10" d="M55,77.88c-.34,0-.44-.09-.5-.3C54.81,77.48,54.86,77.7,55,77.88Z"/><path class="cls-10" d="M48.25,72.7c-.27.1-.36-.06-.46-.26C48.07,72.32,48.15,72.51,48.25,72.7Z"/><path class="cls-4" d="M81,108.3c.11.1.31.08.38.29a.5.5,0,0,1-.46-.2Z"/><path class="cls-15" d="M65.23,79.23c-.09,0-.2,0-.25-.11A.08.08,0,0,1,65,79c.14,0,.21.07.29.16Z"/><path class="cls-10" d="M48.28,72.81a.41.41,0,0,1,.12-.06c.12,0,.17.07.18.17a.3.3,0,0,1-.14.05C48.35,73,48.31,72.91,48.28,72.81Z"/><path class="cls-10" d="M55.25,78.28c0-.06-.12-.11-.11-.17s.11-.1.17-.07.09.11.13.17Z"/><path class="cls-20" d="M30.48,64.39c.07-.1.15-.19.29-.13a.1.1,0,0,1,0,.09c0,.12-.14.12-.24.13Z"/><path class="cls-10" d="M54.57,78.11c0,.14,0,.13-.08.14a.15.15,0,0,1-.18-.1c0-.11.05-.13.12-.12A.41.41,0,0,1,54.57,78.11Z"/><path class="cls-10" d="M80.09,97.84c0-.06-.12-.11-.11-.17s.11-.1.17-.07.09.11.13.17Z"/><path class="cls-10" d="M74.85,94.31c0,.14,0,.13-.08.14a.15.15,0,0,1-.18-.1c0-.11.05-.13.12-.12A.41.41,0,0,1,74.85,94.31Z"/><path class="cls-10" d="M75,94.47c.11,0,.17,0,.2.11s-.06.11-.12.12-.14-.06-.15-.14S75,94.49,75,94.47Z"/><path class="cls-10" d="M47,71.79c.11,0,.17,0,.2.11s-.06.11-.12.12S47,72,47,71.88,47,71.81,47,71.79Z"/><path class="cls-20" d="M30.56,64.47c-.12.17-.27.11-.47.06l.39-.14Z"/><path class="cls-10" d="M70.45,90.51c.11,0,.17,0,.2.11s-.06.11-.12.12-.14-.06-.15-.14S70.43,90.53,70.45,90.51Z"/><path class="cls-4" d="M80.72,108.13a.32.32,0,0,1,.31.16l-.08.09a.33.33,0,0,1-.32-.17Z"/><path class="cls-15" d="M65.32,79.15l.34.19c-.22.05-.34,0-.44-.11Z"/><path class="cls-10" d="M79.9,97.47c-.18,0-.35,0-.36-.09s.14,0,.22,0S79.83,97.41,79.9,97.47Z"/><path class="cls-2" d="M71.44,83.35l.23.15c-.13.08-.24.09-.33-.06Z"/><path class="cls-16" d="M42.28,102.72c-.1-.07-.17-.22-.09-.28s.11.08.14.15S42.38,102.68,42.28,102.72Z"/><path class="cls-10" d="M54.65,78.38c.18,0,.35,0,.36.09s-.14,0-.22,0S54.72,78.44,54.65,78.38Z"/><path class="cls-10" d="M55.42,78.75c-.18,0-.35,0-.36-.09s.14,0,.22,0S55.35,78.69,55.42,78.75Z"/><path class="cls-10" d="M75.3,94.83c.17-.07.34,0,.35.08s-.14,0-.21,0S75.36,94.88,75.3,94.83Z"/><path class="cls-4" d="M80.44,107.95c.07.1.25,0,.28.19l-.09.09c-.07-.1-.25,0-.28-.19Z"/><path class="cls-10" d="M71.08,91s0,.09,0,.09L70.89,91s0-.06,0-.09Z"/><path class="cls-15" d="M65.67,79.42l.13.09s-.06.07-.08.06a.51.51,0,0,1-.13-.07Z"/><path class="cls-10" d="M75.88,95.08s0,.09,0,.09l-.14-.06s0-.06,0-.09Z"/><path class="cls-10" d="M79.51,97.16l-.05.11-.15-.08s0-.08.05-.08Z"/><path class="cls-10" d="M46.83,73.37a.65.65,0,0,1,.08.13s0,0-.05.07a.42.42,0,0,1-.09-.1S46.8,73.41,46.83,73.37Z"/><path class="cls-23" d="M35.27,60.94l-.12-.16c.1-.06.16,0,.21.07Z"/><path class="cls-10" d="M55.72,78.4s0,.09,0,.09l-.14-.06s0-.06,0-.09Z"/><path class="cls-10" d="M55.62,79c-.09,0-.2,0-.23-.12s.06-.07.07-.07.18.07.15.2Z"/><path class="cls-21" d="M56.68,83.82l-.14,0c-.06,0-.06-.06,0-.08a.31.31,0,0,1,.15,0A.56.56,0,0,1,56.68,83.82Z"/><path class="cls-3" d="M57.46,85.44l-.11,0s0-.06,0-.09l.13,0C57.54,85.37,57.54,85.4,57.46,85.44Z"/><path class="cls-10" d="M98.58,108.15a.22.22,0,0,1,.25.09C98.72,108.27,98.63,108.28,98.58,108.15Z"/><path class="cls-10" d="M55.61,79c.09,0,.18-.05.25,0s0,.09,0,.09a.21.21,0,0,1-.21-.15Z"/><path class="cls-1" d="M26.37,68.66a3,3,0,0,0,1.14,2.52,32.85,32.85,0,0,0,4.57,3.7c1.13.88,2.21,1.82,3.3,2.74,1.35,1.14,2.71,2.28,4,3.45.5.44,1,.9,1.53,1.29.06,0,.19.09.09.22s-.22.11-.34,0c-.43-.37-.88-.71-1.32-1.09-1.25-1.08-2.49-2.19-3.75-3.26-1.85-1.57-3.69-3.15-5.68-4.56a12.89,12.89,0,0,1-3.56-3.46A3.61,3.61,0,0,1,26,68.07C26.57,68,26.27,68.46,26.37,68.66Z"/><path class="cls-1" d="M71.6,102c.1-.59.63-.49,1-.59s.77,0,1.16-.12.25.16.3.32a14.52,14.52,0,0,0-2.47.37Z"/><path class="cls-1" d="M76.08,103.15c.09.06.51-.24.52.12s-.4.15-.62.18a3.23,3.23,0,0,0-1,.12c-.12.05-.32.18-.38-.06s.2-.25.3-.26A2.38,2.38,0,0,1,76.08,103.15Z"/><path class="cls-1" d="M64.16,97.11c0-.11-.07-.28.06-.32.47-.15,1-.28,1.44-.4.1,0,.25,0,.29.12s0,.24-.11.22c-.61-.09-1.08.46-1.68.37Z"/><path class="cls-1" d="M78.41,104.78a4.4,4.4,0,0,0,.53.12c.15,0,.22.06.2.22a.17.17,0,0,1-.26.13c-.42-.26-.8,0-1.18.09-.14,0-.28.11-.33-.08s.07-.21.23-.24S78.16,104.85,78.41,104.78Z"/><path class="cls-1" d="M78.28,93.06,76.37,91.5c-.07-.06-.12-.12-.25-.06-1,.51-2.08.29-3.13.38-.11,0-.21,0-.16-.16a.27.27,0,0,1,.33-.19c1,.2,1.94-.32,2.95-.2-.47-.4-.92-.83-1.42-1.2-.77-.56-1.65-.24-2.48-.22a4.7,4.7,0,0,0-1.15.21c-.16,0-.23,0-.27-.1s.11-.14.21-.18a8,8,0,0,1,2.68-.36c0-.28-.26-.31-.41-.43l-3.08-2.35c-.13-.1-.25-.33-.3.06,0,.13-.14,0-.23,0a3.92,3.92,0,0,0-2.14.18c-.07,0-.15.17-.26,0s.09-.24.16-.26a2.89,2.89,0,0,1,2-.2,1.81,1.81,0,0,0,.49,0,19.19,19.19,0,0,0-2.38-1.66,16.89,16.89,0,0,0-2.28-1.8c-1.79-1.39-3.61-2.74-5.4-4.13s-3.46-3.15-5.36-4.53c-1-.76-2.11-1.47-3.15-2.22-.08-.06-.48-.09-.24-.37s.3,0,.44.12c1.12.89,2.35,1.61,3.48,2.47.77.59,1.47,1.25,2.18,1.89,1.42,1.27,2.92,2.44,4.41,3.63.88.71,1.83,1.34,2.71,2A.8.8,0,0,0,65,82a11.68,11.68,0,0,1,3.78.22,1.38,1.38,0,0,0,.37,0c0,.27-.06.41-.36.34A7.69,7.69,0,0,0,65,82.39a8.24,8.24,0,0,0,1.29.91A19.56,19.56,0,0,0,68.53,85c.05,0,.13.09.19,0h0c.13.56.7.66,1.06.94,1.91,1.47,3.86,2.87,5.7,4.43a95.57,95.57,0,0,0,8.24,6.22c3.67,2.5,7.44,4.85,11.26,7.11a31.56,31.56,0,0,0,6.56,3.16c.24.07.48.17.72.22s.21.11.17.24-.15.07-.27,0a14.54,14.54,0,0,1-3-1.09c-2.57-1.22-5-2.71-7.44-4.17-3.26-1.95-6.4-4.08-9.56-6.19C80.83,95,79.57,94,78.28,93.06Z"/><path class="cls-1" d="M80.46,92c-.12.11,0,.2.06.23,1.69.89,3.18,2.09,4.82,3.07a42,42,0,0,0,6.33,3,17.59,17.59,0,0,0,2.89.87,1.45,1.45,0,0,1,.34.2c-.64.33-1.14-.06-1.64-.21a38.35,38.35,0,0,1-11.18-5.53,37,37,0,0,0-5.49-3.21c-.28-.13-.59-.19-.87-.32-.05,0-.3,0-.2-.25s.22-.09.31-.06a18.64,18.64,0,0,1,2.79,1.31,7.52,7.52,0,0,0,1.85,1Z"/><path class="cls-1" d="M86.47,97.9a.49.49,0,0,1,.64-.12,27.75,27.75,0,0,1,5,2.36,24.53,24.53,0,0,0,7.3,3c.14,0,.3,0,.26.22s-.26.16-.38.13a39.07,39.07,0,0,1-4.07-1.37c-2-.81-3.75-2.06-5.68-3A31.61,31.61,0,0,0,86.47,97.9Z"/><path class="cls-1" d="M83,90.5c0,.24,0,.41-.34.33-1.69-.37-3.39-.74-5.1-1-.57-.09-1.16-.13-1.75-.28a5,5,0,0,1,1.68-.05c1.8.25,3.56.65,5.34,1a1,1,0,0,0,.18,0Z"/><path class="cls-1" d="M80.47,92.06c.11-.22.15-.39.54-.29a45.59,45.59,0,0,1,5.92,1.86c.13.05.42,0,.35.28s-.38.09-.49,0a38.76,38.76,0,0,0-5.69-1.83c-.22-.06-.43,0-.64-.08Z"/><path class="cls-1" d="M68.72,85c-.06-.28.05-.36.35-.38a13.61,13.61,0,0,1,2.75.31c.92.15,1.83.36,2.74.54a1.27,1.27,0,0,1,.33.1c.12.06.22.11.17.25s-.19,0-.27,0c-1.18-.14-2.32-.47-3.5-.64a18.06,18.06,0,0,0-2.59-.2Z"/><path class="cls-1" d="M73.47,87.4a23.46,23.46,0,0,1,4.81.87c.06,0,.1.07.16.07.26,0,.72.14.66.26-.16.3-.52.11-.8,0a22.5,22.5,0,0,0-4.87-.9c-.14,0-.4.13-.4-.19C73,87.39,73.08,87.38,73.47,87.4Z"/><path class="cls-1" d="M77,87.13a7.52,7.52,0,0,1-2-.42,13.7,13.7,0,0,0-3.88-.54c-.08,0-.25.26-.3,0s.14-.2.27-.2a10.92,10.92,0,0,1,3.28.27,15.07,15.07,0,0,0,2.37.57C76.87,86.81,77,86.89,77,87.13Z"/><path class="cls-1" d="M33.24,66.89a9.18,9.18,0,0,1-2.19,1.23c.7-.79,1.75-1.13,2.47-1.9l.11-.16a.13.13,0,0,0-.21.08,16.91,16.91,0,0,1-2.69,1.22c-.07,0-.15.11-.21.1-.27,0-.74.17-.77-.14s.42-.14.65-.2a6.2,6.2,0,0,0,1.25-.44c1.4-.72,2.74-1.55,4.19-2.16a2.15,2.15,0,0,1,.9-.26c-.4.4-.56.77-.22,1.23.06.09-.11.4-.23.57A5.37,5.37,0,0,1,34.08,68c-.16.07-.31.11-.2.41a2.28,2.28,0,0,1,0,1.21c-.23,0-.28-.14-.29-.34a2.73,2.73,0,0,0-.1-1c-.11-.28.11-.42.35-.52a5.75,5.75,0,0,0,1.92-1.44,1.13,1.13,0,0,0,.37-.65c.11,0,.13-.11.08-.21l-.16.11a28.46,28.46,0,0,0-3.39,2.54c-.16.14-.16.25,0,.39a1.11,1.11,0,0,1,.34.84.25.25,0,0,1-.2.27c-.19,0-.16-.14-.15-.24a.92.92,0,0,0-.26-.7c-.45-.54-.09-.75.32-1s.61-.3.67-.69a.36.36,0,0,0,.38-.33C33.44,66.55,33.37,66.78,33.24,66.89Zm.66-.44a5,5,0,0,0,2.24-1.63C35.06,65,34.62,65.91,33.9,66.45Z"/><path class="cls-1" d="M33.08,65c.71-.22,1.27-.74,2-1,.11,0,.2-.14.31-.16a5.58,5.58,0,0,1,.58-.08c0,.35-.27.3-.46.39-1.24.61-2.46,1.23-3.7,1.83a10.07,10.07,0,0,1-3.25.83c.23-.55.73-.38,1.08-.5.55-.19,1.12-.29,1.68-.45a3.14,3.14,0,0,0,1.78-1.71,1.91,1.91,0,0,1,.57-.77c.12-.07.2-.1.31,0s0,.18,0,.23c-.46.32-.56.89-.91,1.29l-.11.16A.13.13,0,0,0,33.08,65Z"/><path class="cls-1" d="M67.52,84.74c0,.46-.2.39-.52.29-1-.29-1.83-.82-2.78-1.14a3.68,3.68,0,0,0-1.16-.34c0-.29,0-.42.4-.3,1.2.37,2.28,1,3.48,1.4A1.93,1.93,0,0,0,67.52,84.74Z"/><path class="cls-1" d="M68.11,81.38c0,.13.11.4-.17.34-.8-.18-1.64-.1-2.44-.31a1.25,1.25,0,0,0-.87.08c-.11.05-.34.1-.35-.17s.18-.17.3-.17a11.41,11.41,0,0,1,3,.22,2.51,2.51,0,0,0,.54,0Z"/><path class="cls-1" d="M29.93,78.13a2.77,2.77,0,0,0-1.14.41c-.12.05-.21.3-.35.06s.08-.25.21-.34a2.89,2.89,0,0,1,2.72-.19.94.94,0,0,0,.22.07c.19,0,.43,0,.38.25s-.28.1-.44.06A7,7,0,0,0,29.93,78.13Z"/><path class="cls-1" d="M34.94,80.39c-.08.1,0,.25-.21.27a7.19,7.19,0,0,0-2.41.57.18.18,0,0,1-.25-.09c-.1-.16.06-.2.14-.24a7.94,7.94,0,0,1,2.52-.6C34.8,80.3,34.92,80.26,34.94,80.39Z"/><path class="cls-1" d="M69.08,88.71c0-.21.07-.36.29-.36A2.7,2.7,0,0,0,70.53,88c.39-.19.75,0,1.12,0,.11,0,.2,0,.15.17s-.13.21-.21.17c-.71-.35-1.26.22-1.89.32-.22,0-.43,0-.64.05Z"/><path class="cls-1" d="M22.15,70c.16,0,.18.2.22.3a5.61,5.61,0,0,0,2.45,2.82,3.05,3.05,0,0,1,1.32,1.14c0,.08.16.15,0,.25a.19.19,0,0,1-.27,0c-.76-1-2.08-1.41-2.85-2.45a6,6,0,0,1-1-1.69C22,70.2,21.91,70.06,22.15,70Z"/><path class="cls-3" d="M33.9,66.45c.72-.54,1.16-1.44,2.24-1.63A5,5,0,0,1,33.9,66.45Z"/><path class="cls-3" d="M33.24,66.89c.13-.12.2-.34.46-.23a.36.36,0,0,1-.38.33Z"/><path class="cls-3" d="M33.43,66.13a.13.13,0,0,1,.21-.08l-.11.16Z"/><path class="cls-3" d="M36,65.57l.16-.11c.05.1,0,.17-.08.21Z"/><path class="cls-3" d="M33.08,65a.13.13,0,0,1-.21.08l.11-.16Z"/><path class="cls-26" d="M33.74,38.4C34.48,30.2,42.2,23.12,51,22c1.59-.2,8.45-.35,9.34.75,1.37,1.69-.35,1.54-1.64,1.67-1.91.19-4.67-1.68-7-1.5a15.17,15.17,0,0,0-7.44,2.67c-4.14,2.84-5.72,6.81-7.7,11.16-1.44,3.15-.85,6.92,1.33,10.19,2.51,3.76,7.36,5.91,11.86,6a26.66,26.66,0,0,0,9.91-1.78c1-.4,4.08-2.65,5.07-2-.44,5.67-18.12,5.49-22,4A14.29,14.29,0,0,1,33.74,38.4Z"/><path class="cls-26" d="M68,22.94c.81-2.66,3.25,2.67,2.5,3-3.59,1.69,1.81,9.47-.25,11.58,2.51-2.57,9.16-2.12,10.65,1.89,1.27,3.42-3,15.53-2.36,4.73.2-3.24.59-4.66-2.3-5.77-1.49-.58-5.18-.61-6.16.8-.63.9.06,2.21.19,3.24s.48,3,.49,4c0,3.16-.4,1-2.22,2.65,1.26-1.16.15-11,.14-12.89,0-2.55-.13-5.34-.32-7.49S67.39,25,68,22.94Z"/><path class="cls-26" d="M85.47,37.62a2.32,2.32,0,0,1,2.3-1.53c.62.18-.07,4.47-.07,4.53,0,.44.5,10.7-2.23,8A38.59,38.59,0,0,0,86,42.8C86.06,41.29,85.14,39.06,85.47,37.62Zm.18-6.4c.1-.14,2-4.36,3.49-2.39C90.09,30.14,86.23,32.36,85.65,31.23Z"/><path class="cls-26" d="M92.6,37.67c.66-3.34,2.11-.26,2.57.16.83-.49,7-3.17,7.52-.65.2,1-6.58.78-7.5,1.92,1.39-1.74-.89,12.33-2.56,9.53-.37-.63.4-4.38.41-5.27C93.05,41.81,92.25,39.45,92.6,37.67Z"/><path class="cls-26" d="M104,38.31c-.76-2.92,2.07-1,2.81-.51,3.43-2.91,11.47-1.61,12.65,3.06,1.42,5.59-5.69,7.83-9.62,7.81-2.4,0-2.22-.7-3.19,1.41-.64,1.38-.3,3.26.13,4.67,1.11,3.68-1,10.28-2.33,7.66C104.26,62.07,104.23,39.23,104,38.31Zm2.42,2.15c0,.47-.47,4.49.73,5.83,2.69,3,9.85.62,10.41-3.37s-4.25-5.73-7.75-5C109.55,37.92,106.52,39.2,106.41,40.46Z"/><path class="cls-27" d="M85.94,70.37c.17-4.44-1.38-7.87-1.19-10.75l-1.25.14c3.12-.29,6.59-1.65,10.32-.77,6.82,1.61,1.66,4-1.32,6.16,1.42,1.37,6.15,1.47,8,2.59,3.07,1.82,6.39,6.11,4,9.63-4.3,6.43-15,4.52-21.2,4,.33-1,1.69-.87,1.79-2.18C85.23,78.46,85.86,72.34,85.94,70.37Zm.54-8.25a16.05,16.05,0,0,1,.33,2.7,7.51,7.51,0,0,0,8.76-4.19C93.34,60.36,86.28,57.93,86.47,62.12ZM86.77,77c-.25,2.33-.73,3,.35,3.31,4.46,1.23,9.78,1.39,13.76-1.52,5.16-3.76,1.45-8.26-3.14-10.47a19.28,19.28,0,0,0-6-1.88c-2.64-.33-3.92-.66-4.47,1.25C87.18,68.05,87.13,74,86.77,77Z"/><path class="cls-26" d="M115.21,72.56c.45-.1.42-1.15.42-1.62-.49-.58-6.77-1.11-7.22-.44-.16-2,5-1.65,5.59-1.52,2.8.63,2.65,1.28,3.16,4.18.16.93.57,2.81.22,3.68s-1.86,2.05-1.72.39c-1.88.11-5.43,1.9-7.14.38-1-.9-.3-3.52,1.64-4.57S115.1,72.59,115.21,72.56Zm-5.87,3.73c.38,2,6.18.42,6.52-.94C116.71,72,108.76,73.33,109.34,76.3Z"/><path class="cls-26" d="M126.47,73.66c-1.22,0-4.76.31-5.37-1-1.89-4.09,7.41-3.54,7.35-3.42-.82,1.79-7-.43-5.64,2.45,1.06,2.17,7.2-1.34,6.46,3.46-.27,1.75-2.82,2.82-4.33,3-2.9.39-5.7-3.22-3.48-2.82.85.15,1.07,2.38,3.54,1.9C126.45,77,129.06,73.71,126.47,73.66Z"/><path class="cls-26" d="M139.06,68.93c1,.21,3.25,2.77,2.54,3-2.59.79-6.43-1.22-8.57,1.39-.51.63,1.44,2.8,2,3.16,1.81,1.28,6.91-1.51,7-1.05,1.29,1.54-3.58,2.39-4.12,2.42-2.39.13-5.29-.26-6-2.94a4.87,4.87,0,0,1,2.39-5.47C135.7,68.53,138.23,68.75,139.06,68.93Zm.54,1.2c-.17-.41-4.43-1.24-5.41.67C133.79,71.6,140.09,71.28,139.6,70.13Z"/><path class="cls-26" d="M107.78,97.82C109.77,94.57,112.53,100.14,107.78,97.82Z"/><path class="cls-26" d="M112.52,95.84c-1.69-4.89,9.25-8.1,10.2-1.86C123.58,99.61,114.19,100.68,112.52,95.84Zm2.25,1.34c1.13,1.33,10.6.1,5.81-4.62-1.22-1.2-2.86-1.26-4.6-.71C112.83,92.84,113.31,95.44,114.77,97.18Z"/><path class="cls-26" d="M125.23,91.63c0-.2,5.56-1.6,6.41-.77.46.44-4.77,1.38-4.94,2.67,0,.37.5,6.88-1.28,5.18C125.28,98.58,125.33,92.37,125.23,91.63Z"/><path class="cls-27" d="M131.25,102.33a4.09,4.09,0,0,1,1.67-1c.48.43-1.53,2.35.8,3.33,1.72.72,7-.68,7.67-2.32,2.31-5.29-15.11-1.35-6.86-6.45-1.58,1-2.1-1.2-1.94-2.29.26-1.81,2-2.63,3.32-3s6-.34,6.64-.53c0,1.76-2.14.93-2.62,1.1,1-.41-.12,3.52-.36,3.85-1.09,1.53-5.3.94-5.83,2.56,2.67.42,10.16-.38,8.89,4.32-.72,2.69-5,3.77-7.35,3.7C134.08,105.57,128.93,104.61,131.25,102.33Zm2.89-8c.65,1.49,3.83,1.6,4.65-.07C140.5,90.79,132.42,90.42,134.14,94.36Z"/></g></g></svg>